<svg xmlns="http://www.w3.org/2000/svg" width="67" height="54" viewBox="0 0 67 54">
    <g fill="none" fill-rule="evenodd" stroke="#000" stroke-linecap="round">
        <path stroke-width="2" d="M17.483 17.706a23.73 23.73 0 0 1 1.942 9.435c0 3.287-.667 6.42-1.872 9.268"/>
        <path stroke-width="4" d="M58.533 20.321a60.455 60.455 0 0 1 1.829-1.262c.585-.387 2.914 2.545 2.914 7.707 0 5.512-2.332 8.843-2.917 8.452a55.262 55.262 0 0 1-1.744-1.214c-4.652-3.367-10.846-3.785-15.813-.905a35.056 35.056 0 0 1-17.651 4.752c-8.036 0-15.457-2.712-21.454-7.294-2.245-1.715-2.27-5.096-.026-6.814 4.842-3.707 10.616-6.193 16.892-7.016a35.286 35.286 0 0 1 4.588-.298c6.075 0 11.799 1.55 16.82 4.286.284.153.563.31.84.468 4.95 2.833 11.087 2.46 15.722-.862z"/>
        <path stroke-width="2" d="M15.172 26.234a2.31 2.31 0 1 1-4.62.001 2.31 2.31 0 0 1 4.62 0z"/>
        <path stroke-linejoin="round" stroke-width="2" d="M23.166 25.125s.35-.09.974-.212"/>
        <path stroke-dasharray="2.065,4.13" stroke-linejoin="round" stroke-width="2" d="M28.23 24.357c2.844-.23 6.557-.21 10.255.73"/>
        <path stroke-linejoin="round" stroke-width="2" d="M40.466 25.685c.313.11.626.229.937.355"/>
        <path stroke-width="2" d="M16.773 36.836l3.024 5.239c.165.286.456.48.785.518 1.507.17 3.03.259 4.569.259.553 0 1.102-.014 1.65-.04a1.035 1.035 0 0 0 .847-1.55l-1.977-3.424a35.126 35.126 0 0 0 5.452-.504l2.259 3.915c.229.395.69.6 1.134.494a39.989 39.989 0 0 0 5.182-1.607c.586-.228.822-.935.509-1.48l-1.938-3.354M41.972 20.715a35.321 35.321 0 0 0-6.206-2.64l1.906-3.302c.328-.57.054-1.306-.573-1.501a40.194 40.194 0 0 0-10.422-1.794 1.04 1.04 0 0 0-.937.522l-2.596 4.494a35.39 35.39 0 0 0-2.58.234M51.558 22.54c.624 1.446.971 3.041.971 4.717 0 1.644-.333 3.21-.936 4.635M43.555 3.751a1.613 1.613 0 0 0 .01 2.563 13.243 13.243 0 0 0 8.07 2.744c3.711 0 7.073-1.539 9.524-4.03a13.664 13.664 0 0 0-3.198-2.416A13.18 13.18 0 0 0 51.634 1a13.272 13.272 0 0 0-8.079 2.751zM61.16 5.07s1.664-1.72 3.715-3.079a.331.331 0 0 1 .517.273v5.528a.331.331 0 0 1-.518.273C62.83 6.7 61.16 4.99 61.16 4.99"/>
        <path stroke-width="2" d="M48.868 4.86a.386.386 0 1 1-.772.001.386.386 0 0 1 .772 0zM43.555 47.556a1.613 1.613 0 0 0 .01 2.563 13.242 13.242 0 0 0 8.07 2.743c3.711 0 7.073-1.538 9.524-4.03a13.669 13.669 0 0 0-3.198-2.416 13.191 13.191 0 0 0-6.327-1.611 13.262 13.262 0 0 0-8.079 2.751zM61.16 48.875s1.664-1.721 3.715-3.079a.33.33 0 0 1 .517.273v5.528a.331.331 0 0 1-.518.273c-2.044-1.367-3.714-3.076-3.714-3.076"/>
        <path stroke-width="2" d="M48.868 48.665a.386.386 0 1 1-.773 0 .386.386 0 0 1 .773 0z"/>
    </g>
</svg>
