<svg xmlns="http://www.w3.org/2000/svg" width="32" height="32" viewBox="0 0 32 32">
    <g fill="none" fill-rule="evenodd">
        <circle cx="16" cy="16" r="16" fill="#422B9C"/>
        <path fill="#FFF" fill-rule="nonzero" d="M20.988 19.225c0 1.139-.39 2.12-1.17 2.941-.78.822-1.794 1.33-3.042 1.524v1.953c0 .104-.035.19-.105.257-.071.067-.161.1-.271.1h-1.588a.372.372 0 0 1-.265-.106.335.335 0 0 1-.112-.251V23.69a7.749 7.749 0 0 1-1.5-.346 8.123 8.123 0 0 1-1.194-.497 7.98 7.98 0 0 1-.87-.536 6.662 6.662 0 0 1-.547-.418 2.913 2.913 0 0 1-.206-.201c-.134-.156-.142-.309-.024-.458l1.212-1.506c.055-.075.145-.12.27-.134a.3.3 0 0 1 .283.1l.023.023c.887.736 1.84 1.201 2.86 1.395.29.06.58.089.87.089.635 0 1.194-.16 1.676-.48.483-.32.724-.774.724-1.362 0-.208-.06-.405-.177-.591a2.116 2.116 0 0 0-.394-.469c-.145-.126-.374-.266-.688-.418a16.081 16.081 0 0 0-.777-.358 25.29 25.29 0 0 0-.94-.362 96.86 96.86 0 0 0-.724-.28 20.867 20.867 0 0 1-.724-.295 8.757 8.757 0 0 1-.735-.346c-.184-.1-.406-.233-.665-.396a4.116 4.116 0 0 1-.63-.475 7.077 7.077 0 0 1-.51-.546 2.711 2.711 0 0 1-.419-.648 4.305 4.305 0 0 1-.247-.742 3.688 3.688 0 0 1-.1-.87c0-1.027.385-1.928 1.153-2.701.769-.774 1.769-1.273 3-1.496V6.357c0-.097.038-.18.112-.251A.372.372 0 0 1 14.812 6H16.4c.11 0 .2.033.27.1.071.067.106.153.106.257v1.964c.448.045.88.13 1.3.257.42.127.761.251 1.024.374s.512.262.747.419c.235.156.388.264.459.323.07.06.13.112.176.156.134.134.153.276.06.425l-.954 1.629a.32.32 0 0 1-.27.179.39.39 0 0 1-.318-.079 2.393 2.393 0 0 0-.17-.133 6.453 6.453 0 0 0-.46-.296 6.18 6.18 0 0 0-.688-.357 5.447 5.447 0 0 0-.876-.29 4.125 4.125 0 0 0-1.006-.129c-.745 0-1.353.16-1.824.48-.47.32-.705.733-.705 1.239 0 .193.033.372.1.536.066.163.182.318.347.463.164.145.32.268.464.368.145.1.365.216.66.346a18.718 18.718 0 0 0 1.534.608c.416.15.734.266.953.352.22.085.518.216.895.39.376.175.672.333.888.475.215.141.459.327.73.558.27.23.478.467.623.709.145.241.268.526.37.853.102.328.153.677.153 1.05z"/>
    </g>
</svg>
