<svg xmlns="http://www.w3.org/2000/svg" width="32" height="32" viewBox="0 0 32 32">
    <defs>
        <linearGradient id="a" x1="0%" y1="50%" y2="50%">
            <stop offset="0%" stop-color="#F2CE00"/>
            <stop offset="100%" stop-color="#E0A000"/>
        </linearGradient>
    </defs>
    <g fill="none" fill-rule="evenodd">
        <circle cx="16" cy="16" r="16" fill="url(#a)"/>
        <path fill="#FFF" fill-rule="nonzero" d="M8.045 14.863l3.42 3.126-.95 4.358c-.095.569.095 1.137.57 1.421.19.19.475.285.76.285.19 0 .38 0 .57-.095 0 0 .095 0 .095-.095l3.895-2.179 3.895 2.18s.095 0 .095.094c.475.19 1.045.19 1.425-.095.475-.284.665-.852.57-1.42l-.95-4.359c.38-.284.95-.852 1.52-1.42l1.805-1.611.095-.095a1.32 1.32 0 0 0 .285-1.421c-.19-.474-.57-.853-1.14-.948h-.095l-4.465-.473-1.805-4.074s0-.095-.095-.095C17.45 7.284 16.975 7 16.5 7s-.95.284-1.235.758c0 0 0 .095-.095.095l-1.805 4.073L8.9 12.4h-.095c-.475.095-.95.474-1.14.947-.095.569 0 1.137.38 1.516z"/>
    </g>
</svg>
