<svg xmlns="http://www.w3.org/2000/svg" width="32" height="32" viewBox="0 0 32 32">
    <defs>
        <linearGradient id="a" x1="0%" y1="50%" y2="50%">
            <stop offset="0%" stop-color="#A8C215"/>
            <stop offset="100%" stop-color="#31A767"/>
        </linearGradient>
    </defs>
    <g fill="none" fill-rule="evenodd">
        <circle cx="16" cy="16" r="16" fill="url(#a)"/>
        <path fill="#FFF" fill-rule="nonzero" d="M16.8 8v6.4h6.4c0-3.536-2.864-6.4-6.4-6.4zm5.056 11.112A6.358 6.358 0 0 0 23.2 15.2H11.552l-.76-1.6H8v1.6h1.776s1.512 3.256 1.696 3.536A2.791 2.791 0 0 0 10 21.2c0 1.544 1.256 2.8 2.8 2.8a2.795 2.795 0 0 0 2.768-2.4h1.664A2.795 2.795 0 0 0 20 24c1.544 0 2.8-1.256 2.8-2.8 0-.832-.368-1.576-.944-2.088zM12.8 22.4c-.664 0-1.2-.536-1.2-1.2 0-.664.536-1.2 1.2-1.2.664 0 1.2.536 1.2 1.2 0 .664-.536 1.2-1.2 1.2zm7.2 0c-.664 0-1.2-.536-1.2-1.2 0-.664.536-1.2 1.2-1.2.664 0 1.2.536 1.2 1.2 0 .664-.536 1.2-1.2 1.2z"/>
    </g>
</svg>
