<svg xmlns="http://www.w3.org/2000/svg" width="320" height="183" viewBox="0 0 320 183">
    <g fill="none" fill-rule="evenodd">
        <path fill="#FFF" d="M0 0h320v183H0z"/>
        <path fill="#F2F2F2" d="M185.447 115.292l.18.362.634-.091-.18-.455-.634.184zm73.383-61.898c.362 0 .726-.27.726-.27l.183-.455-.276-.455s-.542.09-.994.09c-.456 0-.363-.18-.818.272-.453.456-.453.728-.453.728l.725.09h.907zm-14.968 24.233l-.544 1.27-.18.544-.09.362-.274.364s-.453.455-1.452 1.09c-.997.635-1.36 1.272-1.36 1.272s-1.633 1.087-2.54.633c-.905-.453-.726-1.544-.726-1.544l.637-.272-.182-1.179.09-.816.636-.454s.09-.634-.275-1.36c-.361-.727-.18-.82-.361-1.724-.181-.908-.273-1.091-.273-1.091l-.36.454-.366.454.093 1.724s.182.817.089 1.363c-.09.542-.271 2.358-.271 2.358l-.182.454.09 1.362-.451 1.27-.457.543-.633.365.361.815.184 1-.545 1.451-.634.818-1.453.363-.908.09s-.724.546-.996.546c-.273 0-.634.453-.816.726-.183.27-.363.815-.363.815s-.092.909.363 1.36c.454.455.454 0 .454 0l1.45-1.27.635-.18s.545.272.726 0c.182-.273 1.179-.816 1.179-.816l.818.18.09-.543.817-.455s.27-1.634.27-1.997c0-.362.09-.27.726-1.268.635-1.001-.361-.274-.725-.364-.363-.09.27-1.361.27-1.361s.273.272.545-.093c.273-.362.819-.27 2.085-.544 1.272-.272.909-1.089 1.182-1.45.273-.363 1.36-1.09 1.813-1.546.453-.454.546-.454 1.451-1.452.908-.997.908-1.723.908-1.723l-.182-.363-.363-.181zm-2.084 46.648c.27.09.816 1 .816 1l.724-.183-.997-1.181s-.816.274-.543.364zm.27-2.632l-.453.271.636.185-.183-.456zm-138.877-10.165s-.363.273-.363.545.544.545.544.545l.272.091.364-.273v-.544l-.364-.273-.453-.09zm17.417-7.26s0-1.634-.453-2.269c-.454-.635-.817-.818-.817-.818l-.545-.362h-1.904l.09.272-.27.456h1.904s.543.271.816.542c.272.273.635.545.726 1.09.09.544-.273 1.633-.273 1.633l.726-.544zm-7.166-2.904l.816.272s.363-.09.635-.18c.272-.092.997-.092.997-.092l-.089-.273-.273-.18-.363-.273-1.542-.364s.272.091-.09.545c-.363.454-.091.545-.091.545zm-2.176-2.359c-.636-.363-.908-.363-.908-.363l-.454-.09-.725-.364-.636-.364-.545-.18-.454.544-.18.454.454.09.997.273s1 .09 1.36.452c.364.362.907.454.907.454l.727.454 1.179.183.092-.455-.454-.274s-.364-.18-.636-.27c-.271-.092-.09-.182-.724-.544zm9.704 47.283s-.18 0-.453.363c-.272.362 0 .546 0 .546l.544.09.908-.09.453-.636-.725-.363-.727.09zM109.16 55.39l.635-.09v-.273l.362-.274.363.547-.635.544v.906l.363-.635c.544.182 1.723.545 1.723.545h-.908l.091.273s.183 0 .454.09c.272.092.635.092.816.363l.183.274h-.454l-.453.088s-.726-.27-.818.183c-.09.455 0 1.18 0 1.18h.818l.18-.272.363-.362h.726s.182-.182.273.18c.09.362.453.635 0 1.088-.455.457-.726.999-.726.999l-.092.728s.545.18-.634.362c-1.179.18-1.362.18-1.362.543 0 .363.092 1.18.092 1.18l-.272.727.906.363-.091-.818s.637-.362 1-.362c.361 0 .815.453.815.453s.998 1.362 1.906 1.816c.907.453 1.36.453 1.632.545.274.09.998.362.998.362v-.816l-.218-.437-.145-.29.726.544.634-1.45s-.272-1.363-.816-1.725c-.544-.362-.996-1.27-.996-1.543v-.27l.633.542s.363.636.816.909l.456.27.453-.455s.27-.45.725-.813c.454-.365 0-1.636-.454-1.907-.454-.273-1.36-1.18-1.36-1.18l-.546-.454-.906-.727.183-.362.09-.546s-.635-.362-.364-.543c.274-.182 0-1.088 0-1.088l-.907-1-.544-.18s-.363-.274-.544-.547c-.181-.272-.726-.725-.726-.725s-.362-.181-.635-.361l-.272-.182-.454-.637-.453-.363c-.543-.362-.543-.816-.543-.816L110.7 48.4l-1.09-.453s-.089-.09-.452 0c-.364.09-1 .184-1 .184l-.814-.184-.365.09s-.269-.27-.542-.27h-1.089s-.818.907-1.089 1.18c-.272.27-.544.544-.544.998 0 .453-.18 1.905-.272 2.178-.092.272.272.634.272.634l.18.636s0 .183.545.817c.545.636 1.088.636 1.088.636s1.362-.093 1.816.18c.453.274.725.907.725.907l.544-.452.545-.091zm8.979 24.14c-.103-.137-.088-.038-.031.135.07-.013.095-.049.031-.134zm6.804 1.635c0-.102-.007-.076-.019.009.013.055.02.06.02-.009zm-20.63 19.596l-.053.007h.001l.052-.007zm0 0c.17-.024.13-.019 0 0zm26.436 12.622c-.454-.088-.727-.543-1.452-.816a18.995 18.995 0 0 0-1.362-.453l-1.36-.727s0-.545-.542-1.18c-.547-.636-.636-1.181-1-1.27-.361-.091-1.179-.453-1.179-.453l-1.723-.546-1.27-1.182-.544-.996-.817-.183-1.542.093-.636-.273-1.631-1.18-.363.181-.544.182s-1.452-.09-.908 0c.545.092-.544.27-.544.27l-.545.275-.816.635s-.42.504-.6.74c-.06-.094-.851.169-.851.169s-.545-.182-.907-.182c-.363 0-1.27-.272-1.27-.272l-.635-.545s-.183.273-.183-.545c0-.819.183-.274-.089-1.453-.273-1.179.818-1.542-.908-1.45-1.723.09-1.904-.184-1.904-.184l-.816-.633-.183-.546.635-.09c-.632.09 1.18-.635 1.18-.635l-.09-.818h-1.542s-.545.907-.455.635c.092-.271-.814 1.362-.723 1.09.09-.273-1.272.544-1.272.544l-1.088-.455s-.998-2.539-.907-2.902c.09-.365.09-1.362.09-1.362l.09-1.362 1.271-.998s1.36-.726 1.816-.362c.452.362 1.267.18 1.267.18s1-.635 1.27-.544c.273.09.908.364.908.364l.72.179c-.704-.17 1.004.82 1.004 1.091s-.09 1.18.362 1.452c.454.272.907.272.907.272s.636-1.453.455-1.724a548.584 548.584 0 0 1-1.362-2.088s1.724-1.544 1.905-1.815c.182-.272.908-.272 1.451-1.18.545-.908.636-2.36.636-2.36s2.177-1.723 1.27-1.36c-.907.361 1.633-1.09 1.633-1.09l-.182-.726s1.542-1.27 1.904-1.27c.363 0 .454.454.454.454s.545-.092 1.179-.184c.635-.09 1.815-.905 1.906-1.267.091-.363.363.088-.817-.728-1.18-.817-1.09-1.361-1.09-1.361s-.208-.49-.302-.774c-.226.039-.967-.225-.967-.225l-.451-.272s1.087-.544 1.358-.544c.272 0 .545.363.545.363s.364.636.635.725c.272.09.635-.09.635-.09l.091-.454s.182-.362.454-.452c.272-.092.543-.092.907-.364.363-.273.998-.636.998-.636s-1.271 2.36-1.18 2.633c.091.272.454.634.817.634.363 0 1.178.182 1.178.182l-.173.693c.03-.11.174-.485.718-.33a7.72 7.72 0 0 1 1.18.454s.045-.597.071-.808c-.045-.225-.163-1.28-.163-1.28l-.272-.636-.816-.362-.545-.272-.18-.636.09-1.18s-.362-1.45-.544-1.724l-.363-.546s-.998-.724-1.451-1.18c-.454-.454-.907-1.542-.907-1.542l-.363-1.18s-1.362-2.268-.906-1.632c.453.635-.365-1.271-.365-1.271s-.907.816-.817 1.089c.092.27-.18.636-.452.907-.271.272-.634.272-.634.272s-.545 0-.727-1.089c-.181-1.087-.453-1.724-.453-1.724l-1.089-.817-.816-.727-.908.092-1.269-.182-.363.455s-.183 1.632-.091 1.088c.091-.544 0 .908 0 .908l-.272 1.453.18 1.088s1.452 1.088.364 2.27l-1.088 1.18v1.361c0 .455.635 1.723.091 1.905-.545.183-.818.454-1.27-.271-.454-.725-.454-1.634-.546-2.27-.09-.636-.724-1.18-.724-1.18l-1.089-.182s-.816-.997-1.815-1.27c-.998-.273-2.085-.635-2.085-.635l-.635-1.453c.635 1.453-.727-.725-.727-.725s.545-2.542.817-2.905c.272-.362 1.18-1.179 1.18-1.179l.362-.726s.998-.454 1.27-.817c.272-.364.545-1.542.545-1.542l.815-.185s-.453.547-.634 1c-.18.454-.908.271-.18.998.725.727.996.727.996.727l.726-.453.545-.274 1.269.636.453-.454s-.272-.635-.814-1.18c-.546-.545-1-1.088-1-1.088l-.091-1.09s.273-.272.726-.635c.454-.364.454-1.453.454-1.453l-.182-.996.273-.545s-.18-1-.363-1.182c-.182-.18-.546-.633-1.09-.633-.542 0-.996.363-.996.363v.997l-.181.543-.364.365-.181.454v.817l-.363-.09-.364-.727.183-.726-.183-.546s.092-.27-.362-.543c-.453-.274-.817-.274-.817-.274l-.906-.543.092-.908-.818-1.814s-.272-.91-.363-1.272c-.09-.364.453-1.089.453-1.089l.728-.271s.09-1.272.453-1.725c.361-.455.361-.999.361-.999l-1.179.091-.543-.183-.817-.09-.182.273-.362 1.18s-.09.908-.09 1.362c0 .453.18 1.905 0 2.358-.182.454-.454.909-.454.909l-.272.725.272 1 .453.453.907.454.09.635-.453.09-.453-.454c-.363-.362-.727-.634-.727-.634l-.725-.181-.181.363-.636.544-.18.272.997.907-.634.545-.091.455s-.726.18-.999.18c-.27 0-.997-.271-1.36-.635l-.997-.998-.727-.183s-.635.274-.908.365c-.27.088-.633.363-.724.633-.09.274-1.088.729-1.633.819-.544.09-1.452-.365-1.452-.365l.363-.816-.634-.636-.725-.18-.817-.09-1.997-.817s.182-.273-.452-.182c-.636.09-.907.272-.907.272s0-.453-.272-.726c-.272-.274-.636-.454-.636 0s-.272.817-.272.817-.091-.091-.362-.454c-.273-.363-.818-1-.818-1l-.453-.633s-.09.18-.09.453v.272l-.364.181H80.04l-.272.273-.272.09-.272.093-.454.544-.363.09-.453-.09s-.362-.182-.544.09c-.181.273-.636.726-.636.726l-.452.181-1.09-.816-.907-.091s-1.36-.817-1.995-.634c-.634.18-1.088.089-1.088.089l-.545-.272-1.27-.546s0-.088-.362-.088c-.363 0 .18-.092-.363 0-.544.088-1.179-.365-1.179-.365l-.273-.271h-.272c-.271 0-.271-.273-.634-.363l-.363-.091-.908-.18-.544.36s-.816 0-1.088.092c-.273.092-.455 1.09-.726 1.09-.272 0-.816.545-.816.545l-1.09 1.088-.998.543-.27.453s-.183.728.09.91l.272.182.454.361.452.546.454.633.364.274.272.455-.091.272-.545-.272-.634-.271-.272.179s-.454.272-.726.454l-.273.183-.544.543.181.455.183.543.18.273.363.27.453.183h1.362l.272-.091s-.092-.18.27 0c.365.182.727-.092.454.544-.27.637-.362.727-1.087 1.091-.726.362-.816-.273-1.27.907-.454 1.178-.454 1.27-.181 1.814.272.544.363 1 .906 1.18.545.183.545-.09.908.183.362.272.362.725.453.997.091.274.999.635 1.27.635.272 0 .635-.09.908-.18.272-.093 0 .363-.092.818-.09.452-.816 1.269-1.27 1.63-.453.365-1.361.275-1.904.819-.544.544-1.09.907-1.632 1.36-.546.455-2.541 1.634-2.541 1.634s2.63-.635 3.357-1.269c.725-.636 1.088-.91 1.088-.91l.27.274s0 .092.546-.274l.544-.36.273.09s.635.453.635 0v-.454s.543-.817.906-.91c.364-.087 1.362-1.088 1.725-1.63.363-.548.543-.91.543-1.273 0-.362.09-.909.544-1.27.455-.363.727-.635.727-.635l-.544 1.453s-.636 1.725-.907 2.267a4.9 4.9 0 0 0-.363.908s.363.364.634 0c.272-.362.545-.726.816-1.09.273-.36.455-.453.364-.815-.091-.364-.183-.456.09-.818.273-.362 1.18-1.452 1.905-1.452.725 0 2.086.273 2.54.273.453 0 1.996.182 2.63.817.635.636 1.088 1.087 1.45 1.904.364.82.728 1.361 1.362 1.998.635.636 1.27.909 1.27.909s.907.907 1.088 1.268c.183.364.545.364.817 1.273.273.907.09.997.273 1.27.18.272.271.272 1.36 1.451 1.088 1.179 1.088 2.27 1.088 2.27s-.18 2.721-.271 3.448c-.091.726-.181 1.453 0 1.997.18.544.454.726.907 1.27.452.545.544.635.907 1.271.362.636.725 1.089 1.36 1.543l.636.453s.18.455.453 1c.273.543 0 .635.453 1.088.454.454.908.272.908.727 0 .452-.092.814.181 1.089.273.272.362.09.726.453.363.364.363.726.363.726l.635.454s.363.455.635.817c.272.362.544.273.544 0s-.363-1.452-.726-1.815c-.362-.363-.362-.544-.636-.818-.27-.27-.725-.817-.725-.817s-.997-.907-.997-1.36c0-.456.362-.635.362-.635l.454.545s.544.997 1.36 1.905c.817.907 1.27 1.543 1.724 1.996.454.454.725.365.999.91.271.54.271.905.271 1.177 0 .274.272.908.906 1.544.636.635 2.814 1.543 4.355 1.996 1.542.453 2.267.453 2.267.453l.273.455.453.363s.183.09.544 0c.364-.09.636-.09.636-.09s0-.183.362.18l1 1s.271.363.362.727c.09.362.907.453 1.268.815.365.364.274.634.636.906.362.274-.636.274.817.365 1.45.09 1.994.272 1.994.272s.364.27.183 1.088c-.183.818-.726 1.814-1.18 2.36-.454.545-.543.454-.635 1.362-.09.909-.272.816-.181 1.453.092.636.726 1.361 1.36 2.357.636 1 .907 1.908 1.542 3.178.636 1.27 1 1.361 2.269 2.087 1.27.728 1.178 1.452 1.178 1.452s-.453 4.72-.634 5.173c-.181.453-.181 3.631-.817 4.72-.635 1.09-.726 3.631-.816 3.993-.09.362 0 .998-.364 1.724-.362.729-.27 1.635-.27 2.178 0 .546-.183 1.906-.183 1.906s-.272.998-.09 1.906c.181.908 0 .818.181 1.633.182.818.545 1.544.907 1.908.364.364 1.09 1.087 1.815 1.453.725.361 1.36.816 1.723.635.362-.183 1.18-1 1.18-1l1.36-.18s-1.542-.544-2.086-1.092c-.545-.543-.363-.815-.634-1.358-.273-.546-.365-1.181-.365-1.181v-.634l.273-.184.363-.815.363-.544.725-.818-.091-.635-.726-.727.182-.545.544-.453.273-.091s.18-.907.454-1.089c.273-.182.634-.816.634-.816s-.545-.272-.634-.546c-.092-.273.543-.454.815-.544.273-.091.636-.272.727-.725.09-.455.544-.817.544-.817s1.906.09 2.177-.545c.272-.636.09-1.362 0-1.816-.091-.453.09-.726.09-.726l1.633.182.816-.454.727.272s.09-.453 0-.725c-.091-.273 0-1.09 0-1.09s.634-.906.996-1.362c.363-.454.817-.454.726-1.268-.09-.818.273-1.907.908-2.361.635-.455 2.72-.727 2.72-.727s.546-.453.636-.906c.09-.454.635-.998.635-.998s.453-1.363.635-2.089c.182-.725.182-2.087.182-2.087s1.813-1.542 1.904-2.09c.091-.542.091-1.995.091-1.995s-.725-.272-1.18-.724c-.454-.455-2.81-1.18-3.264-1.272zM96.73 49.674l-.273.088-.09.727s.725.636 1.271 1.27c.544.637.907 1.365.907 1.365l.633-1.091.636-.363s.182-1.181 0-1.633c-.181-.454-.09-1.272-.09-1.545 0-.271 0-.453-.363-.725-.363-.272-.816-.272-.816-.272l-1.27.726-.183.544s.727.635.364.91c-.364.27-.726 0-.726 0zm-12.7 3.175l.183.455.543-.18.817-.184.181-.636.181-.634.454-.545.273-.182.361-.18v.362l-.09.545.364.454.272.452-.183.364s-.27 0-.18.273l.09.272s.273.544.545.635c.272.09.724.183.724.183s.364-.183.726-.183c.363 0 .183-.182.726.09l.545.273s-.454.364-.998.364H87.66s-.996.09.183.635.272.452.272.452l1.36.182.272.272.908.816h1.179s-.091.183.363-.27c.453-.454.272-.636.905-.546.637.092.637 0 1 0s1.178 0 1.813.182c.636.181.454.546.636.181.18-.363.18-.363.454-.817.272-.452.272-.543.453-.997a2.77 2.77 0 0 0 .154-.51 5.118 5.118 0 0 1-.518-.124c-1.269-.365-1.36-.636-1.36-.636l-.273-.998s-.453-1.453-.453-1.726v-1.088l.272-.907s-.18-.636-.453-.727c-.272-.09-.726-.09-.726-.09l-.543.453s.543.454.271.454c-.271 0-.816.18-.816.18l.09 1.453s-.453-.363-.725-.634l-.272-.275-.816.727s.09-.362-.453-.543c-.545-.184-.998-.184-.998-.184l-.092-.634s-.18-.273-.454-.18c-.271.09-.543-.273-.543-.273l-.999-1.362s-.363-.454-.633-.454c-.273 0-.908.09-.908.09l-.908-.452s.092.27-.454.27c-.543 0-1.268.092-1.268.092v.545s.09.453 0 .728c-.091.269-.091 1.36-.091 1.36s-.091.725-.273.997c-.18.273-.272.908-.272.908l.545.636.543.816zm13.608 1.362s-.002.08-.028.217c.508.083.028-.217.028-.217zm-12.7-10.62l.454-.088.543.088s.816-.634.998-1.089c.183-.452.272-.452.272-.452v1.271c0 .542-.454.907-.454.907h.635s.272-1.271.545-1.726c.272-.452.453-.634.634-.906.183-.272.092-.999.092-.999v-1.725s-.726.817-1.36.817h-.635l-.635.728-.273.544-.454.635s-.182.362-.634.998c-.453.635-.182.273-.182.273l.454.724zm9.706 1.816l.362.272s.545-.272.817-.453c.272-.182 0-.544 0-.544H95.1l-.454.725zm-3.084-3.177l.363.454.272.727.09.635-.816.091s-.272-.998-.816-1.453c-.545-.454-1.27-.544-1.27-.544l-.726.272-.092.999-.18.452-.363.637v.544l.543.546h.455l.634-.09h.454l-.363.633.272.454s0 .18.454.18.998.183 1.089-.09c.09-.27.272-.544.272-.544s.635-.09.906-.09c.273 0 .545-.093.818-.093.271 0 .997-.814.997-.814l.362-.816v-.73l-1.088-.814-.544-.274-.183-.452-.452-1.09-.362.728-.726.542zm-.635-4.81s.635-.27.998-.09c.363.18.363-.545.363-.545l-.726-.544s-.272 0-.725.182c-.455.18-.998.634-.998.634.543.452 1.088.363 1.088.363zm-.635 2.178s.545.364.907.183c.363-.183.635-.547.635-.547s-.091.092.09-.27c.182-.364.091-.997.091-.997s-.816 0-1.27.271c-.453.272-.726.272-.726.272s0-.272-.453-.363c-.453-.091-.635.271-.635.271l.545.547.816.633zm5.17.364c-.182-.817-.725-1.452-.997-1.544 0 0-.091.908-.091 1.363 0 .454.272.997.272.997h.997l-.182-.816zm-.454-4.085l.092.273-.183.635v.272l.817.547.455-.095.362.185.091.362-.453.362.27.454h.455l1.361-.725-.182-.996-.453-.638-.182-.636-.364-.543-.814-.364-.546-.727-.454-.271-.543-.362-.363.633-.182.545.454.727.362.362zm8.71 3.632l-.546-.544-.363.453-.18.363.363.454.633-.273.092-.453zm-2.178-.183l-.09-.546-.999-.18-.453.272-.091.637 1.18.18.453-.363zm-1.451-.816c.725-.18.815-.906.815-.906s.092-.365 0-.637c-.09-.272-.453-.636-.453-.636l-.725-.542h-.636v1.542c0 .453-.09.545.182.816.27.271.091.544.817.363zm-1.996-5.626l.544.361s.273-.36.273-.454v-.905L98 31.61h-.724l.452.728.364.545zm1.633-.727l.906 1.27.454.91-.182.27.092.817.544.999v.453l.907.728s.362.09.635.09c.271 0 .726-.274.726-.274l.724-.09.908.637.09.451-.725.092-.454.545.454.996-.273.366s-.543.361-.907.544c-.362.18-.453.18-.995.18-.547 0-.637-.09-.637-.09s-1.179-.454-1.632-.634c-.454-.182-.635-.092-.635-.092l-.454.544s.544.819.726 1.181c.181.362.544 1.813.544 1.813l-.635-.36s-.364-.274-.453-.546c-.09-.273-.364-.635-.364-.907s-.363-.545-.363-.545l-.634-.272h-.544s-.363.363-.726.545c-.364.18-.364.452-.364.452l-.544-.452s-.09-.273-.362-.364c-.273-.09-.545.364-.545.364s.363.998.635 1.543c.272.542 1.271 1.09 1.271 1.09s.363.906.544 1.18c.182.27 1.179-.184 1.179-.184l.543-.725.363.18s0 .274.092.637c.09.362.181.271.454.634.272.364.543.274.907.364.362.09.453 0 .725-.636.272-.635-.544-1.815-.544-2.088 0-.27-.273-1.179-.273-1.179s.273 0 .727.182c.452.18.452 1.087.452 1.544 0 .452-.09.724-.09 1.087s.816.91 1.089 1c.271.09.726.18 1.18.27.453.09.634.273 1.088.273.454 0 .907.091.907.091l.906-.544s.636.18.908.27c.272.092.817-.36 1.089-.45.271-.093.271-.638.271-.638s.092-.272-.181-.725c-.273-.454 0 0-.182-.454-.18-.454-.091-.272-.361-.544-.273-.273-.364-.183-.636-.273-.272-.092-.363-.092-.635-.092-.273 0-.635.092-.997.182-.364.09-.454.273-.817.455-.363.183-.726.092-.998 0-.273-.09-.999-.817-.999-1.271 0-.455.183-.455.183-.455s.816-.09 1.179-.09c.363 0 .906.09 1.179.09s.454.092.454.092l1.088-.182s.363-.182.635-.182.364.272.364.272.361.274.543.909c.181.635 0 0 .454-.272.453-.272.091-.909.091-.909s.271.092.544-.362c.272-.454-.182-.816-.364-1.09-.18-.273-.544-.727-.544-.727s.364-.089.908-.542c.543-.454-.182-1.091-.182-1.091s.997-.18 1.451-.362c.454-.18.092-.636.092-.636l.453-.997v-.363l.18-.726-.18-.274-.182-.362v-.816l.453-.637.545-.18.363.09c.363.09.363-.09.363-.09l.454-.634.09-.637s.635-.454.997-.908c.364-.454.727-1.36 1-1.905.27-.546.996-1.27 1.086-1.543.092-.272.363-.816.363-.816h-.271c-.273 0-.907.09-.907.09l-.27-.364s1.63-.453 1.902-.545c.272-.09.545-.634 1.089-1.178.545-.546.545-.635.635-.91.091-.271 0-.543 0-.815 0-.273-.18-.364-.18-.364l-.546-.09-.272-.907-.18-.545-.908-.454-.999.09s-.271 0-.724-.362c-.454-.363-.636-.274-.908-.363-.272-.091-.907-.182-.907-.182l-.997-.091h-1.18l-.725.273-.726.272-.816.182-.364.181h-.635l-.725.09-.546.636-.452.817-.092.544-.724.091-.453-.09c-.454-.092-.274.18-.274.18l-.543 1-.545.182-.634.363c-.636.361-.545.272-.545.272l-.544.544-.453.726.09.635h.453l.091.454.363.363-.091.635.545 1.362s.634.453.907.543c.272.094.454 0 .454 0l.815.183.364.18s.906 0 1.18-.18c.271-.183.452-.273.724-.364.273-.089.999-.907.999-.907l.18-.364.354-.708-.081.982.09.635-.543.362-.817.364-.182.273s-.362.272-.636.272c-.27 0-.27.27-.27.27l-.363.366-.635-.093h-.998s-.272-.09-.635-.272c-.363-.182-.454-.362-.727-.635-.272-.27-.634-.725-.634-.725s-.077-.35-.156-.691a24.701 24.701 0 0 0-.115-.49c-.092-.363-1.181-.998-1.181-.998l-1.088.181.091.727-.453.362-.091 1.27-.454.364.363 1.089-.181.725-.272.092zm42.27 22.597l-1.088-.45-.273-.637s-.181-.454.092-.363c.272.09.634.454.634.454l.545.18.453.09s.091-.724.091-1.27c0-.544-.273-1.36-.273-1.36l-.18-.455s.908-.09.908-.362c0-.273-.183-.635-.183-.635l-1.087-1.181s.815.363 1.27 0c.45-.364.45-.908.45-.908l.093-.907.726-.453s-.545-.547-.454-.818l.09-.272 1.089.272v-1.088l-.635-.18s-.272-.091-.454-.728l-.18-.634.544-.637s.725-2.087.362-2.45c-.362-.364-.726-.453-.726-.453l-.18-.818.634-.907v-.908c0-.273.091-.545.091-.545l.273-.634s-.182-.727-.273-.363c-.091.363-.545-.816-.545-.816v-1.18l.182-.365.544-.362s.363-.546.092-1c-.273-.453.453-.453.453-.453l.543-.634-.362-.818s1.18-.18 1.18-.635c0-.454.09-.998.09-.998s.906-.907 1.18-1.451c.271-.547-.908-1.272-.908-1.272s-.545-.453-.998-.271c-.452.18-.272-.092-.907.724l-.635.819-.816.09-.455-.817-.27.18-.09.455s-.456.273-.547.545c-.055.168-.176.269-.262.384.133-.712.353-1.919.353-2.11 0-.27-.09-.635-.453-.817-.363-.18-.816-.361-.816-.09 0 .272-.454.637-.545.908-.09.273.183.363-.363.545-.543.18 0-1.09 0-1.09h-2.176s-.635-.18-1.089.092c-.453.272-1.087.544-1.087.544s0-.272.27-.635c.273-.364 1.088-.635 1.451-.635h1.543l.998.091s.636-.546.998-.636c.363-.09.998-.544 1.178-.908.183-.363.455-.544-.09-1.09-.545-.544-.635-.453-1.18-.907-.543-.453-.906-1.27-.906-1.27s-.453-.454-.544-.182c-.09.273-.363.454-.363.454l-1.088-.18s.02-.142-.15-.208c.639-.17 1.238-.338 1.238-.338l.635-.272s0-.362-.362-.453c-.364-.093-.273.27-.817-.183-.544-.454-.817-.544-.817-.544l-1.179-.362-1.09-.183-1.088.183s-.453-.183-.906.18c-.454.364-.998.635-.998.635s-.09.274-.362.365l-.273.089s-.544.183-.816.183c-.272 0-.908.272-.908.272s-.18-.182-.362.09l-.181.272s.543.182-.454.363l-.998.182-.362.18-.092.454.182.273s.09.091.363.454l.272.364.272.453s.091.091.272.363l.182.272v.362l-.182.364-.272.363s.091.182.091.455v.271l-.272.183-.726-.454s-.182-.363-.363-.635c-.18-.273-.545-.728-.545-.728l-.09-.272-.363-.09H125.668l-.183.272s-.27.09-.27.364v.271s-.091-.113-.126-.126c-.035-.01-.01.082.216.489l.454.816-.727-.906-.452-.363h-.454l-.454-.091h-.273l-.906.544s-.544-.18-.907 0a3.817 3.817 0 0 1-.816.274l-.182.363-.09.272-.454.272-.363.362-.09.364s.181.272.09.543l-.09.273-.092.364v.363l-.272.181-.271.272-.546.546c-.272.27-.18.09-.634.725-.455.636-.545.907-1.087 1.36-.546.454-.365.454-.274.818.09.363.09.543.362.726.273.183.636.271.636.271s.363 0 .363.546c0 .544.18 1.09-.092 1.36-.271.272 0 .365-.725.547-.724.18-1.27.542-1.27.542s-.362.729-1.088 1c-.726.27-1.27.816-1.27.816s.09.275.272.908c.182.634 0 .092.454.726.453.635 1.542.816 1.45 1.088-.09.273-.544.727-.544.727s-.634-.363-.634 0c0 .362.091.908.091.908s.09.091.272.363c.18.272.543.816.907 1.18.363.363.544.545.816.453.274-.09.725-.272 1.088-.272.364 0 1-.09 1-.09s.18-.091.542 0c.364.09.273.362.817.544.545.18 1.632.726 1.815 1.452.18.727.453 1.087.545 2.178.09 1.09.362 1.27.453 1.724.09.453.724 1.452.544 2.268-.182.818-.363 1.09-.092 1.27.272.184.545.273.545.273s1.088 0 1.27.456l.182.453-1.18.182s0 .636-.182.997c-.181.364-.181 1 .182 1.18.363.183.544.454.816.183.272-.273.545-.818.725-.363.183.452-.543 1.27-.543 1.27s-.545.545-.545 1.18c0 .636 0 1.814.183 2.543.18.724 0 .27.452 1.358.453 1.09.636 1.815.636 1.815s0 .999.454 1.543c.453.545.815.999 1.18 1.725l.362.728s.27-.184.725.089c.453.271.817.635 1.18.816.362.182.452.362.635-.181.18-.544.453-.273.544-1.36.091-1.09.181-1.726.181-1.726s.543-.363.635-.816c.09-.453.363-1.271.454-1.634.091-.363 0-.724.453-.999.453-.272.907-.362.907-.362l.727-.09 1.632-1.635c.361-.362.997-2.087.997-2.087s2.722-.272 3.175-.725c.453-.455 1.814-1.815 1.814-1.815l.273-.547zm40.73 1.634c0 .273.454.454.454.454l.362-.362-.092-.453-.635-.182s-.09.271-.09.543zm-11.52-20.691l.995-.273-.543-.364h-.725l.274.637zm2.63-3.72l.634-.546-.364-.363-1.177.454-.363.18.543.184.727.09zm17.96-5.811v-.543l-.27-.273h-.274l-.544.09-.091.273.182.272.996.181zm-3.28 2.538c.073.172.043.101 0 0zm-.076-.177l.075.177c-.018-.042-.041-.1-.075-.177zm-7.619 1.816l.634.089s.363.092.454.363c.089.273.363.727.363.727l.816.455.454.27.997.184v-.454l-.634-.909.544-.09.271.09.274.09.454.093h.271l.725-.093h.543v.273l.456.271.636-.09.088.274.092.271.271.09.454-.09.18-.271.183-.364-.183-.27-.36-.457-.274-.18-.18-.272.09-.273.09-.273.274.09.36.274.454.182h.274l.362-.273.363-.364.362-.089.453-.09.274-.183.271-.273.274-.181.09-.273.09-.725v-.454l-.09-.363-.272-.181h-.453l-.364.453-.361.363s-.365.182-.274.455l.09.27v.364h-.273l-.18-.364-.544-.09-.272.182-.634.363s-.182.363-.274 0l-.09-.363-.273-.635.184-.273.271-.181.091-.544-.273-.455-.09-.273.363-.725-.183-.362-.543.27v.364l-.181.362-.184.273-.541.182-.455.454.182.544v.454h-.272l-.274-.272-.089-.272h-.363l.18.272c-.18.725-.18.363-.18.725v.364l.09.364.636.454.272.09.361.09.274.364-.456.27-.543-.18-.545-.364-.36.183-.274.273-.27.089s0 .183-.275 0l-.27-.181s0-.364-.09-.816l-.09-.454v-.546l-.185-.362-.273.182c-.452.362-.088.272-.452.362-.363.092.09.092-.363.092h-.454l-.996.18-.637.092-.362.363-.363.453.182.364.454.182zm20.136-.999l-.725-.454-.361.363.543.453.543-.362zm6.623-1.27l-.544-.546-.362.364.453.543.453-.362zm32.656 12.978l-.273.816.907-.363-.634-.453zm-6.893 6.715l-.819-.817.274.907.545-.09zm-.364-2.813l.272-.272-.18-1.179h-.457s.092.088.092.634c0 .545.273.817.273.817zm-16.055-4.992l-.454-.636-.816.363.906.546.364-.273zm0-2.086l-.454-.545h-.635l.453.636.636-.091zm-9.164-6.99s.092.636-.18.725c-.27.091-.544.366-.544.366l.09.544s.09.452.634.724c.545.273.274.092.274.092l.546.365.36.452s.273.454.545.816c.27.364 0 0 .365.182.362.182.45.363.45.363l.91.362s.36 0 .723-.453c.365-.454.274-1.18.365-1.542.09-.364 0-1.18 0-1.451 0-.274-.183-.274-.183-.274l-.545-.271s-.542-.635-.633-1.362c-.092-.727.182-.907.182-.907s-.455-.546-.819-.818c-.36-.272-.545-1.271-.545-1.271l-.45.454-.457.362h-.543v.455l-.092.818-.27.364-.363.634.18.27zm3.993 6.898l.362.363.637-.543h1.63s.275 0 .544-.273a1.54 1.54 0 0 0 .364-.546l.273-.272v-.363l-.363-.543s.454.182-.182-.364c-.636-.545-1.18-1.09-1.18-1.09l-.452-.361-.273.544s-.181.089-.361.452c-.183.364-.364.727-.364 1 0 .272 0 .362-.181.815-.184.454-.454 1.18-.454 1.18zm23.858 11.254l.452.09.998.09s.09-.09.542-.09c.457 0 0-.636 0-.636l-.724-.635-.361-.273-.364-.271-.182-.363-.453.181-.273.453.365.548-.365.543.365.363zm4.715-2.631c.364.27.453.09.816.09.364 0 .454-.364.725-.636.273-.27-.271-.635-.271-.635l-.726-.272s-.725-.272-.997-.272c-.273 0-.907-.545-.907-.545l-.091.635s.273.454.455.727c.18.271.633.634.996.908zm-6.35-.546l.272.456.273.18.545-.636 1.543-.182.633.182.454-.27.182-.455.27-.636.092-.272-.18-.272-.636-.453-.272-.092-.727-.272-.271-.272s0-.365-.271.182l-.272.542-.635-.452-.728-.455-.361.545-.272.727s0 .816.09 1.088l.272.817zm-42.544-3.63c-.998.181-1.36.271-1.36.271l-1.542.637s.183-.363-.18.272 0 1.27-.636 1.36c-.633.092-.996.183-.996.183l-.092.545v1.088s-.182.272-.364.634c-.18.363-.363 1-.363 1s.091.271-.089.634c-.183.363-.183 0-.454.455l-.544.907s-.273.816-.273 1.18c0 .363.181.727.455.999.271.273.362.544.454.817l.091.272s.634.362.997.362h.907c.271 0 .363-.27.363-.27s.181-.183-.092-.453l-.27-.275-.457-.725-.269-.999.363-.817s-.094.09.18-.453c.271-.545.361-1.09.361-1.09l.184-.273.181-.271.364-.546.089-.816.09-.272.454-.09s.18 0 .363-.273c.181-.274.453-.634.453-.634s.547-.636.817-.818l.274-.181s.36-.635.725-.635c.361 0 .635-.093.635-.093l1.087-.996 1.089-.545.18-.364.183-.634-.997-.819s0 .273-.455.637c-.453.363-.362.272-.817.546-.452.27-.09.362-1.089.542zm-30.567-6.807l.816.907v.364l.272.362.362.363s.181 0 .181.364v.996l.273.365s.091-.09.091.273 0 .363.363.907l.364.544.995.819.366-1.363.543-.727s.18.09.18-.272c0-.361-.09-.726-.09-.726l.183-.544.27-.452v-.273l.272-.364v-.272l.545.544.18.365.184.634-.092.362s0 .18-.183.455l-.179.271.634.092s.272-.092.364.18c.09.273-.182-.18.09.273l.272.454.273-.363s-.273.181 0-.273c.27-.455.636-.817.636-.817s.36 0 .18-.272l-.364-.544-.363-.18.092-.545-.636-.364v-.364l-.18-.362-.274-.181v-.363s0-.363-.362-.545l-.362-.182-.091-.452-.273-.182-.27-.274-.183-.36-.453-.547-.633-.544v-.272l-.457-.545-.272.183-.363.725-.453-.091-.544-.09h-.636l-.634-.09-.364.18s.093.09 0 .362c-.09.272.273.272.273.545 0 .274-.091 1.09-.091 1.09s.636-.272.091.272l-.543.544zm4.534-3.359l.273.366.361.27.546.183-.092.453c0 .455.453.635.453.635s.091-.09.545 0c.454.09.998.09.998.09l.547.181.36-.09.545-.543.543-.726.182-.363v-.456l.273-.634s-.543-.18-.907-.18c-.362 0-1.362-.547-1.362-.547l-.363-.272-.362-.271-.362.363-.362.09-.364-.363-.454-.181-.453.09-.453.183-.092.452.092.273-.092.272s-.18 0-.09.362c.09.363-.182 0 .09.363zm-19.32 31.403c.272 0 .363-.182.725-.454.362-.273.453-.906.453-.906s-.272-.545-.453-.998c-.181-.453-.09-.545-.09-.545l-.636-.546-.544.184-.453.09-.453.18h-1.362l-.544-.18s-.272-.183-.545-.183c-.27 0-.362.093-.362.093l-.18.362-.364.634v.454l.273.09.453.272-.09.275-.272.088-.184.363.273.183.273.27V64.195h1.088c.453 0 .544.182.544.182l.726.362.544-.544c.545-.545 0 0 .363-.365.362-.362.544-.362.816-.362zm4.898 3.176l.181.636s.272-.908.363-1.27c.09-.365-.271-.455-.271-.455l-.636.363s.181.092.363.726zm-1.813 9.623v.814s0 .182.452.365c.453.18 1.452-.546 1.452-.546s.544-1.45.635-1.724c.09-.271.09-.454.362-.545.272-.092.636-.092.636-.092s.362 0 .362.274c0 .272-.272.817-.272.817l-.362.453.091.546-.091.452-.273.908-.181.545s.726-.091.997-.091c.272 0 1.18-.18 1.18-.18l.726-.183.543-.363c.274-.18.546-1.088.546-1.088s.089-.453-.272-.816a2.758 2.758 0 0 1-.546-.817s-.09-.545-.363-.728c-.27-.182-.815-1.18-.815-1.18l-.362-.09s.27-.454.27-.818c0-.363.182-.817-.09-.998-.272-.181-.636-.362-.636-.362l.364-.544.272-.817h-.453l-.273.452-1.18.453-.18.363h-.817s-.09.274-.09.548c0 .269.272.724.272.724s.09.545 0 .819c-.09.27-.545.724-.545.724s-.544.09-.816.544c-.273.453-.907.636-.727 1.09.184.454.184.816.184 1.09zm5.169-7.444s.272-.546.272-1.09-.272-.635-.272-.635l-.362.728-.454.45.182.366.634.18zm90.621 64.255l.542.09-.454-.453-.088.363zm.906-1.725l.726.092-.545-.635-.18.543zm.181-1.542l.545.09-.363-.545-.182.455zm0-6.805l-.363.18.455.272-.092-.452zm10.16 11.978c-.091-.271-.272-.635-.272-.635l-.997-.635-.184-.636-.815-.272s.364.908.725 1.362c.361.454.726 0 .453.907-.27.91-.635 1.271-.635 1.271s.182.181.365.454c.178.272.452-.09.452.364 0 .452-.274.633-.274.633l-.996-.181s-.09-.181-.361.273c-.273.453.451.18-.726.998-1.18.817-1.452 1.182-1.725 1.452-.273.272-.816 1.18-.816 1.18s.183.182.543.545c.365.363.546.635.546.635l.635-.272s.908-.363 1.18-1.181c.273-.814.452-1.088.452-1.088l.362-.09.819-1.363c.27-.454.905-.454.905-.454l.365-1.087s.272-.454.633-.727c.364-.272.637-1.18.637-1.18l-.728-.182s-.452.183-.542-.09zm-16.056 1.816s-.09.543-.635.635c-.544.091-1.45-.181-1.45-.181l-.182.453s.27.271.362.728c.09.452-.452.543.09.996.545.455.724.455 1 .364.27-.09.453.09.725-.544.271-.637.363-.909.271-1.183-.09-.271-.181-1.268-.181-1.268zm-10.069-24.685l.364-.364-.636-.182-.09.273-.271.544.18 1.273-.18.36v.273l.361.091.364-.999-.185-.272v-.544l.093-.453zm-2.63 2.541c.361 0 .09.724.361 0l.272-.727h.455l.543-.181-.273-.636v-1.179l.185-.274v-.364l-.093-.361-.362-.726s-.455.817-.544 1.087c-.09.274-.09 1-.09 1l-.364.546-.544.997.09.363s0 .455.364.455zm13.606 9.983c-.362-.364-.634-1.364-1.18-1.544-.542-.18-.818-.546-.818-.546l.185-.542-1.09-1.18-.09-.636-.545-.636-.453-.817-.364-.635v-.637s.092-.09.455-.36c.362-.273.816-.636.816-.636s.362-.09.724.181c.362.272.818.815.818.815s1.27.82 1.632.73l.364-.093s-1.543-2.086-1.815-2.45c-.272-.361-.999-1.452-1.361-1.541-.362-.093-.542-.274-.816-.274-.272 0-1.36-.362-1.903-.635-.545-.272-.729-.454-1.27-.454-.546 0 .089-.181-.546 0-.634.182-1.27.635-1.36.272-.09-.362-.724-.816-.724-.816l-1.27.18s.272.818.541 1.363c.272.544.364.908.364.908l.455-.092s1.27.273 1.542.361c.272.093.997.183.997.638 0 .454-.453 1.18-.453 1.18s-.364.816 0 .907c.361.091.634-.637 1.089-.727.454-.09.815-.09 1.178.543.364.637.364 1.001.182 1.363-.182.365-.364.636-.273 1.362.09.727.546 1.361-.18 1.452-.729.092-.907-.09-1.725-.635-.815-.544-.997-.273-.815-1.089.18-.816.272-1.181 0-1.27-.272-.09-.545-.09-.909 0-.361.089-.996-.182-1.632-.274-.634-.09-.906.092-1.18.546-.27.453-.363.634-.545 1.18-.18.542-.451.726-.543.453-.09-.272-.363-.635-.727-.635-.36 0-.542.182-.815.453-.27.271-.09.271-.907.818-.816.545-1.09.362-1.09.634 0 .275.182.637-.36 1-.545.362-.728.906-1.817.997-1.086.09-1.995.364-2.266 1.18-.274.816-.725 1.814-.274 2.905.454 1.088.909 1.813.909 2.631 0 .816-.182 1.18 0 1.997.18.817.545.908.906.908.364 0 .818-.274 1.272-.453.45-.183.997.09 1.812-.183.818-.272 1.18-.726 1.544-.998.36-.272 1.086-.363 1.45-.363.363 0 1.088-.273 1.088-.273s.184-.453 1.088.091c.907.545 1.632.545 1.906 1.09.271.544.636 1.089.636 1.089s.182-.364.454-.364.905.364.905.364l.818.726.453.907s.635.818.999.91c.36.09.816.27.816.27s-.092.365.18.365c.274 0 .546-.365.546-.365h.543s.997-.635 1.27-.726c.272-.091.997.272 1.18-.271.18-.545.453-2.996 1.087-3.54.635-.546.908-1.634.998-2.088.089-.453-.452-3.176-.725-3.539-.273-.364-.997-1.09-1.36-1.452zm-15.875-12.98c.274.092 1.36.274 1.452 0 .092-.27.363-.816.363-.816s.544-1.271.363-1.996c-.182-.726.091-.726.091-.726l.544-.274-.09-.45.18-.547-.273-.271-.09-.363-.27-.638-.366-.636.092-.452-.363-.545-.725-.364-.999-.362.455-.635v-1.178s-.998-.546-1.179 0c-.183.543-.634 1.088-.634 1.088s0 .363.088.725c.091.362.274.908.274.908l-.455.908s-.543.909-1.178 1.635c-.634.726-.634 1.177-.634 1.177s-.09.455-.636.909c-.545.454-1 1.27-1.725 1.452-.723.18-.998.363-.998.363s-.452-.546-.815-.636c-.362-.088-.635.09-.635.09s.09.456.18.818c.093.362.364 1.09.636 1.543.272.455.727.726.727.998 0 .275.182.364.452.364.273 0 .363-.272.818 0 .45.27.996.364 1.36.453.363.09.725 0 .725 0l.545.544.361-.633s-.725-.183-.725-.545c0-.364 0-1.452.544-1.816.544-.363.636-.908.636-.908s-.455-.725-.362-1.18c.09-.453.817-.363.817-.363s.542-.362.907-.636c.36-.271.816-.634.816-.634s.271-.274.453 0c.18.272.906.545.906.908 0 .362.545.453 0 1.27-.542.817-1.724.997-1.995.908-.272-.091-.636.18-.636.18l-.906 1.18v.545l.272.638.183.724v.454l.362.543h.362l-.182-.635.092-.544.543.182v.362l.546.454.634.181.271-.455-.271-.36-.363-.182s.363-.454.09-.635c-.27-.181-.18-.272-.453-.545-.273-.272-.273-.635-.544-.726-.272-.091-.272-.454-.272-.454s.362-.454.634-.364zm3.812-16.79l-.91 1.182v.362l.547-.182s.27-.271.543-.637c.274-.362-.18-.725-.18-.725zm-4.446 1.998l-.364.727c-.272.544-.634.363-.272.908.363.542.728.725.819.269.09-.452.633-.542.543-.997-.092-.454.182-.726.182-.726l-.908-.181zm-27.667 15.519h.454v-.908h-.543l.089.908zm0-1.997l.545.454.09-.635.181-.727-.816.091v.817zm.545-2.36l-.634-.273-.091.819.544.18.181-.725zm-.272-1.903l.452-.275-.452-.634-.818-.636s-.271.361 0 .728c.273.362.365.635.365.635l.453.182zm3.99.09l-.454.454s.272.906.272 1.36c0 .455.364.908.636.817.271-.091.816-.454.726-.908-.09-.455-.545-1.09-.545-1.09l-.635-.633zm-13.607 11.887l.547.364.272-.455-.545-.271-.274.362zm-.996-3.72l.361.454.363-.545-.542-.273-.182.364zm-4.264 2.993l-.454-.543s-.545.364-.27.726c.27.364.724-.183.724-.183zm1.813 1.635l-.543-.544s-.816.998-1.09 1.452c-.27.453-.454 1.179-.905 1.36-.454.182-.908.273-.999.545-.091.275.182 1.45 0 1.997-.18.545-.815 1.18-.635 1.724.181.546.09.909.272 1.27.182.365.454.637.908.544.454-.089 1.09-.452 1.358-.905.275-.455.73-1.272.73-1.815 0-.546.09-1.453.452-2.178.362-.726.636-1.453.543-1.907-.09-.453-.09-1.543-.09-1.543zm11.703-19.06c.213 0 .102 0-.084-.048-.032.03-.02.049.084.049zm29.105-5.311c.034-.039.063-.078.102-.133.412-.575.245-.364-.102.133zm-35.001-11.114l-.364.544s-.815-.363-.906-.817c-.092-.454.182-.636.182-.636l.453-.362 1.177.726-.542.545zm-3.81 13.613c-.363.092-.726.181-1.27 0-.543-.182-.273-.544-.727-1.18-.452-.635-.725-.544-.905-.817-.183-.273-.183-.726-.183-.726l.636-.271s.272.18.543.362c.273.183.273.273 1.363 1.27 1.087.999.723.364.905.454.182.09.543.364.543.364s-.543.453-.904.544zm-3.9-13.886c-.184-.362.27-.544.544-.908.271-.362.544-.362.816-.453.27-.09 1.178-.363 1.178-.363l.728.363s-.183.363-.636.637c-.453.27-.363.18-.543.452a1.723 1.723 0 0 0-.274.907c0 .274.454.816 1 1.543l.544.726s-.183.999-.545 1.089c-.364.09-.364 0-.909 0-.543 0 0 0-.273-.273-.27-.27-.362-.27-.362-.27s-.09-.546-.18-.82c-.09-.27 0-.452 0-.452l-.182-.635-.362-.726s-.363-.454-.544-.817zm-2.269 20.874s-.635-.363-.906-.454c-.272-.092-.726-.635-1.181-1.45-.45-.817-.725-.91-1.087-1.545-.365-.635-.09-.726-.183-.997-.09-.274-.361-.91-.632-1.179-.276-.273-.363-.817-.453-1.27-.094-.456-.456-1.181-.456-1.181l.182-.546.274.181c.269.183.542.727.542.727l.272.818s.545.18 1.18 1.361c.635 1.177.36 1.269.36 1.269s.364.545.999 1.27c.636.727.546 1.091.636 1.816.091.726.634.908.634.908l.09.726-.271-.454zm-4.173-18.514c-.635-.454-1.088-.544-1.088-.544l-.907-.365-.363.365-1.54.182-.635-.909s.27-.635.36-.906c.091-.274.634-1.27.999-1.453.363-.182.636-.273.816.09.183.363.09.636.274.908.18.272-.091.363.45.455.546.09.999-.092.999-.092l.819-.273s0-.272.632.273c.638.544 2.18 1.36 2.18 1.36l.271.637s0 .543-.454.634c-.453.092-.635.545-1.36.092-.727-.454-.819 0-1.453-.454zm87.082-26.047c-.452-.182-1.45-.182-1.45-.182s-1.632-1.635-1.908-1.815c-.271-.182-1.357-1.089-1.631-1.36-.272-.275-.998-.727-1.27-.818-.271-.09-.997-.363-1.544-.363h-1.813l-.27.363s.363 1.09 0 1.27c-.362.181-.907-.18-.907-.18l-.908-1s-.274-.09-.543-.09c-.273 0-1.363.09-1.363.09l-1.18.091-.452.544s-.997-.452-.997-.996c0-.546.18-1.091 0-1.362-.182-.273-.818-.634-.818-.634h-1.36s-.634.27-1.45.361l-.818.092s.273-.728-.09-.908l-.727-.365-.544-.907-.816-.454-1.088.273-1.087-.727s-.91-.362-.999-.362c-.092 0-.998.09-.998.09l-1.27.726s.361.09.18.635c-.18.546-.271.909-.271.909l-.635-.091-1.181-.092-1.176.092s0-.453-.272-.636l-.273-.182s-.363 1.999-.725 1.999c-.364 0-.817-.637-.909-.908-.09-.273-.182-1-.182-1.816 0-.816-.725-2.361-1.45-2.361s-1.359-.544-1.542-.271c-.18.271-.273.997-.634 1.27-.365.271-.908 1.09-1.906.183-.999-.91-1.633-1.182-1.633-1.182l-.907-.091-.908-.362-.725-.364-.724.182-.364.09-.454.365c-.452.363-.726.816-1.27.816h-.543s2.722-2.811 3.355-3.267c.635-.454 1.091-1.361 1.091-1.724 0-.364.089-1.453-.275-1.815-.36-.364-.726-.634-1.27-.817-.542-.18-1.18-.363-1.54-.18-.364.18-1.09.543-1.09.543s.272-.907.091-1.18c-.18-.27-.544-.453-.544-.453l-.181-.546s.09-.091-.182-.455c-.272-.362-.908-.543-.908-.543s-.816.818-1.27 1.36c-.453.546-.635 1-.542 1.273.089.272.089.634.089.634s-.543.092-.818.092c-.27 0-.453.544-.453.544l-.633.182s-.363-.364-.453-.636c-.093-.272-.272-.635-.272-.635v-.908s-.362.364-.637.455c-.27.09-.727.544-.727.544s.092.182.092.454-.27.634-.27.634l-.818.545s-1 .727-1.54.999c-.547.272-1.363.726-1.636 1.451-.272.728-.09 2.178-.09 2.178s-2.63.182-2.993.727l-.362.544s.09.727.181 1.18c.093.454.817.908.997 1.182.182.27.364.906.364.906v1.907l-.454.088-.18-1.087s.18-.817-.093-1.18c-.272-.364-.725-.727-.725-.727s-.545-.726-.997-.998l-.453-.272-.727.454-.452.544-.546-1.27-.363-.093s.183.727 0 1.091c-.182.363-.634.725-.634.998s-.092.636.091 1.543c.181.91 0 2.088 0 2.36 0 .273.27.362.543.362.274 0 .363-.089.725.182.363.272.636.636.636.636s-.908-.454-1.27-.183c-.363.274-.363.818-.363.818s0 1.088-.27 1.634c-.275.543-.545 1.27-1.181 1.27-.634 0-1.361-.454-1.361-.454s.818-.183 1.089-.273c.272-.09.908-.996.999-1.45.089-.455.179-.727 0-1.271-.183-.545-.274-2.905-.183-3.358.092-.454 0-.454-.181-1.091-.182-.633.817-1.723.543-2.268-.27-.546-.998-.998-.998-.998s.182-.635-.09-.726c-.27-.092-.635.18-.635.18l-.274.728s-.361.182-.451.545c-.091.362-.271.725-.271 1.36 0 .636-.454 1.09-.727 1.361-.272.274-.272.546-.272.819 0 .27-.18 1.087.09 1.543.273.452.455.996.455.996s.181.635.181.909c0 .272-.726.09-.726.09s-.727-.545-1.18-.907a3.335 3.335 0 0 0-1.27-.636c-.364-.09-1.18-.725-1.18-.725l-.905-.544-.273.18s0 .545.273.637c.271.089.544.27.451.634-.089.362 0 1.088 0 1.088s-.724-.726-.905-.454c-.18.273-.816.273-.816.273l-.725-.273-.274.454-.545.727-.543-.818s-1.45.453-1.723.91c-.273.452-1.36.452-1.45.996-.093.546-.728.91-.728.91l-.453-.91.635-.725s-.544-.816-.816-.816h-.636s-.182.363-.182.725.274 1.725.182 2.087c-.09.366-.725.366-.725.366l-.636.179s-.543 1-.635 1.45c-.09.455-.181.818-.181.818l-1.178-.09-.725-.361s-.544 0-.365.27c.184.272.184.545.184.545l-.276.363s-.633 0-.722-.636c-.091-.634.271-1.089-.091-1.633a90.53 90.53 0 0 1-1-1.543s2.721 1.271 3.174 1.18c.456-.091 1.634-.908 1.726-1.18.089-.272-.727-1.543-1-1.724-.27-.183-1.36-1.09-2.087-1.544-.722-.454-.722-.816-1.358-.816-.634 0-1.453-.271-1.453-.271s-.18-.727-.271-.998c-.09-.274-.908-.818-.908-.818s-1.45-.361-2.086-.361c-.634 0-.908.18-1.451.634-.544.453-.906.545-1.634.633-.723.092-1.54.818-1.721 1.09-.184.273-1.273.453-1.453 1-.183.544-.998 1.451-.998 1.451l.726.364.272.272s-.544 2.177-.998 2.542c-.455.363-.634 1.36-.907 1.54-.273.182-.273.636-.636.727-.36.091-.905.453-.905.453l-.907.999s-.818.635-.908 1.089c-.091.454-.182 3.175 0 3.812.181.634.363.997.817 1.09.453.09.453 0 1.088-.364.634-.363 1.088-.634 1.088-.634l.363.089.452 1s.184.816.273 1.452c.09.635.727 1.633 1.09 1.361.364-.272.364-.544.364-.544l.814-.636s.365-.455.365-.817c0-.364-.184-1 0-1.27.182-.273.182-.093.454-.455.271-.362.544-.272.633-.816.091-.544.091-.91-.362-1.18-.455-.272-.455-1.362-.455-1.362s.817-1.723 1.361-2.267c.543-.547 1.088-1.363 1.088-1.363v-.816l.636-.817s.635.092.909.362c.27.272-.366 1.451-.366 1.451s-.543.727-.725 1c-.18.273-.544.907-.544.907l-.18.909s.09.09.09.725 0 1.27.272 1.451c.271.183.634.456.634.456l.819.09.905-.546 1.18.183.543.273-.906.363-1.18.18s-.542 0-.816.183a4.25 4.25 0 0 0-.545.454s-.363 0-.09.454c.273.451.543 1.087.543 1.087l-.725.272-.544.545-.18 1.09-.636.816-.182.636s-.27.274-.633-.091c-.365-.363-.728-.271-.728-.271s-.724.636-1.27.816c-.543.182-.997-.091-.997-.091s-.909-.363-1.088-.999c-.182-.634-.09-1.542-.182-1.906-.09-.363-.182-.636-.454-.636-.273 0-.816.636-.816.636l-.635.818.363.998.092.543-.182.366s-.364.36-.637.36c-.27 0-1.178.184-1.178.184l-.272 1.088-.727.726-.815.454s-.271.272-.453.546c-.182.27-.09.634-.545.814-.454.182-1.088 0-1.088 0l-.543.364-1.18.636s.454.907.724 1.09c.273.18.273.09.636.362s.453.454.544 1c.091.542.182 1.45-.272 1.633-.452.18-1.45.18-1.45.18s-1.634-.272-1.997-.09c-.364.18-.635.634-.635.634s.27.817.27 1.089c0 .274.183.545-.087.998-.275.455-.455 1.635-.455 1.635s.998.363 1.451.363c.454 0 .454.362.454.362l.544.455.454-.364s1-.181 1.179-.181c.182 0 1.18-1.089 1.18-1.089l.18-.817s1-1.18 1.362-1.453c.361-.27.725-.815.725-.815l.182-1.09.906.637 1.452-.636.815-.092s1.18 1.363 1.724 1.815a3.794 3.794 0 0 0 1.088.637s.726.18.819.906c.09.726-.729 1.089-.729 1.089l-1.084.091.542.727.815.18.272-.816.728-.635s.182-.454.182-.726c0-.272.451-.09.451-.09h.365v-.546l-.816-.453s-.726-.545-.999-.726c-.272-.182-.272-.272-.636-.725-.362-.454-.904-.636-.904-.636v-.454l.451-.273s1.178 1.18 1.541 1.363c.365.18 1.09.453 1.09.453l.453.09.362 1.271.455 1.452.454 1.18.906.544.454.546s.545.362.815.362c.274 0 .726-.09.726-.09l.274-.365.543-.271.908-.092.545.273.45-.453 1.09.09-.09.726.907.362.272-.542.816-.093s.364.908.182 1.18c-.182.273-1.451 1.635-1.451 1.635s-2.36-.182-2.72.091c-.364.271-1.364 0-1.907-.273-.545-.272-1.18-.817-1.634-.817-.453 0-1.086.545-1.45.817-.364.273-1.993.36-2.45 0-.452-.362-.908-.544-1.088-.817-.183-.272-.726-.908-.726-.908l-.634-.09-.725-1.09c-.183-.271-.363-.906-.363-.906l-.364-.09s-2.811.27-3.083.27c-.273 0-1.815.363-1.815.363s-.998.818-1.542.908c-.544.092-.998.273-1.36 0-.364-.273-.998-.273-.998-.273s-.545 1.18-1.18 1.634c-.636.455-.454 1.09-.727 1.543-.27.454-.543 1.633-.996 1.724-.454.092-1.178 1-1.634 1.635-.453.636-1.088 2.086-1.36 3.174-.272 1.091-.362 2.997-.272 3.63.09.638 1.814 3.089 2.178 3.542.362.455 1.814 1.906 2.357 2.177.545.273 1.271.273 1.906.273h2.177s2.177-.635 2.72-.816c.546-.182.998.18.998.18l.817 1s.635.092 1.18.27c.544.183.634.456.634.818 0 .362-.272 1.543-.272 1.543s.182.545.725 1.09c.545.543 1.18 1.361 1.27 1.723.091.364.363 1.18.363 1.18l-.091.727.273.906s-.182 1.362-.273 1.634c-.087.273-.543 1.452-.452 2.09.09.632.634 1.813.816 2.268.181.453.453 1.178.543 1.723.09.545-.09 2.632.546 3.176.633.544.817 1.271 1.087 1.907.272.635.091 1.27.636 1.905.545.636 1.36.817 1.633.636.272-.183 1.27-.273 1.725-.273.45 0 2.177-.998 2.992-1.633s1.18-1.634 1.18-1.634.815-.998.997-1.723c.18-.729.998-1.181.998-1.181s.45-.997.45-1.27v-2.179s2.088-1.27 2.36-1.815c.274-.545.728-2.178.636-2.54-.09-.365-.908-2.995-.543-4.266.362-1.27 1.633-2.451 1.633-2.451l2.81-2.814c.545-.545 1.181-1.27 1.269-1.725.093-.45.727-1.542.818-1.903.09-.366-.454-.546-.454-.546s-.816-.181-1.179-.09c-.363.09-2.267-.546-2.267-.546s2.358-.907 2.903-1.09c.543-.18 3.354-1.45 3.627-1.723.272-.272.907-.726 1.09-1.18.18-.454.543-1.18.543-1.18l.635-.908s-.724-.996-1.177-1.18c-.455-.18-.998-.634-.998-.634l.27-.272s2.177.725 2.631.725c.454 0 .998-.272 1.452-.272h1.179l1.27.998s.908.998.998 1.453c.047.238.347.352.551.404.113-.099.81-.313.81-.313s.273 1.996.452 2.359c.183.363.545 1.632.817 2.088.274.453.909 1.634.998 2.089.09.453.09.724.455.996.361.274.542.274.814 0 .274-.272.726-.906.726-.906l.363-.365.182-1.544.184-1.36s1.448-1.09 1.811-1.361c.363-.272 1.36-.998 1.724-1.27.363-.273 1.361-.273 1.361-.273h1.27c.272 0 .725.455.725.455s.725.271.635.725c-.09.454-.183 1-.183 1l.727.543.637-.454.452.272s.634 1.089.634 1.997c0 .907-.361 1.998-.361 1.998s.545.635.724.997c.183.363.908 1.542.908 1.542l.272 1.09s.364.908.18.454c-.18-.454-1.088-.906-1.088-.906l-.814-1-1.544-.271.637 1.087-.093.817.634.365.184.815.545.636.633.998.726.181 1.906 1.908c.362.362 1.178.996 1.813 1.178.634.181 1.816.274 1.816.274l2.176.544s1.723.088 2.085.088c.365 0 1.362.365 1.362.365l.816.182-.18-.547 1.087-.27v.817s1.27-.09 1.543-.182c.27-.091.906-.091.906-.091l.272-.184.546-.543.454.727.54-.637.457-.18-.093-.725h-2.63s-.452.088-.725.271c-.27.183-.636.183-1.18.091-.543-.09-1.269-.182-1.722-.09-.455.09-1.364.182-1.364.182s-1.359-.366-1.63-.366c-.273 0-.908-.361-.908-.361s-2.176.091-2.45-.09c-.269-.182-.814.09-1.087-.453-.272-.547-.997-1-.543-1.18.452-.183.634-.453.634-.453s-.634-.547-.997-.818c-.363-.273-.727-1.182-1.088-1.998-.364-.818 0-1.362-.275-1.816-.272-.452-1.36-1.18-1.723-1.905-.361-.725-.544-1.271-.452-1.544.09-.27.27-.726.545-.726.27 0 .726-.27 1.27.457.542.726.904.907.996 1.36.09.453.817-.09 1.27-.364.454-.27 1.45-.907 1.633-1.453.18-.545.18-1.271-.182-1.814-.361-.544-1.631-1.541-1.722-2.087-.092-.545.543-1.452.816-1.452h.816c-.455 0 .272.453 0 .725-.271.274-.635.274-.362.636.27.363.543.546.815.454.274-.091.725-.183.637-.726-.091-.545-.182-.819-.182-.819s2.448-.998 2.902-1.177c.453-.183 1.633-.635 2.086-1.725.248-.597.928-1.622 1.348-2.227-.714.889.186-1.694.012-2.13a50.16 50.16 0 0 0-.726-1.632s-.634-.454-.272-.819c.363-.363 1.088-.726 1.088-.997s-.18-.454-.543-.454c-.362 0-.724.273-.907-.091-.18-.363.454-.907.634-1.18.183-.271 1.272.183.816 0-.452-.181.727-.364 1.182 0 .452.364.904.817.904.817s.365.544.365.908c0 .362.09.907.09.907s.271.725.543.725c.273 0 .455 0 .725-.09.273-.09.455-.545.455-.545l.184-1.088s-.817-.817-1-1.18c-.182-.363-.09-.635-.09-.635s1.27-.726 1.36-1.453c.091-.724.906-.999.906-.999s.547.275 1 .092c.454-.18 1.904-1.725 2.63-2.995.727-1.27 1.09-1.451 1.362-2.36.272-.907.272-2.812.272-1.905 0 .907.18-1.18-.092-1.906-.272-.725-.909-1-.909-1l-.905-.18s-.816-.635-.272-1.452c.543-.818 2.178-1.907 2.538-2.542.366-.634 1.725-1.088 1.725-1.088s.907 0 1.271.272c.361.27.997-.454 1.27-.454.27 0 .997.09.997.09l.907.546 1.271-.092s.271-.637.361-.907c.091-.273.273-1.18.819-1.634.542-.454 1.45-.635 1.45-.635l.543 1.088s.273.364.635.092c.364-.271.906-1.09 1.18-1.452.271-.364.727-.637.727-.637l-.545 1.544s-1.724 1.542-2.088 2.179c-.362.634-.09.634-.906 1.27-.818.637-1.27 1.271-1.27 1.271s-.364 1.723-.364 2.36c0 .636 0 1.544.092 2.268.09.726.18 1.09.18 1.09s.635-.09.998-.454c.364-.363 1.18-1.18 1.09-1.454-.09-.27.18-.997.18-.997s.455.274.817-.091c.362-.363.362-.545.362-1.089 0-.544.453-.817.453-.817s.092-.636.184-.998l.18-.726-.726-.274s.362-.27.546-.997l.18-.725 1.361-.182s1.18-1.18 1.633-.726c.452.453.818.816 1.18.545.363-.273 1.27-1.544 1.632-1.816.364-.272 1.36-1.18 1.814-1.18.453 0 1.27.091 1.27.091s.362-.636.272-1.27a11.043 11.043 0 0 0-.272-1.273s.362-1.179.818-1.27c.452-.089 2.085.636 2.085.636s.636.908 1.089.908c.453 0 1.27-.363 1.27-.636 0-.272.09-.817.543-1.089.453-.27.544-.544.544-.816 0-.27-.725-1.181-1.179-1.36zm-53.247 43.2c.316.238.211.159 0 0z"/>
        <g transform="translate(91 15)">
            <path fill="#005E91" d="M63.314 14.677c.295.247.686.704.686 1.823 0 1.12-.391 1.577-.686 1.823-.542.455-1.136.677-1.814.677-.677 0-1.27-.222-1.814-.677-.294-.246-.686-.704-.686-1.823 0-1.118.392-1.576.686-1.822.544-.456 1.137-.678 1.814-.678.678 0 1.272.222 1.814.677zm19.134 23.641v-1.523h-.014v-5.224c0-.529-.648-.794-1.026-.42l-6.397 6.32c-.378.375-.11 1.015.425 1.015h1.581c-.09 3.419-2.928 6.175-6.41 6.175-3.538 0-6.418-2.845-6.418-6.343v-17.09a5.86 5.86 0 0 0 .773-.532c.754-.614 1.654-1.769 1.654-3.787 0-2.017-.9-3.172-1.653-3.786-1.019-.83-2.19-1.25-3.485-1.25-1.294 0-2.466.42-3.486 1.25-.754.615-1.652 1.77-1.652 3.786 0 2.017.9 3.173 1.653 3.787.249.202.507.38.774.533v17.09c0 6.45 5.31 11.7 11.84 11.7s11.841-5.25 11.841-11.7zM68.201.068C85.53-.587 99.788 13.1 99.788 30.08c0 8.022-3.181 15.309-8.37 20.696l-18.4 20.609c-1.924 2.154-5.324 2.154-7.248 0l-18.4-20.608c-5.596-5.813-8.861-13.84-8.31-22.614C40.02 12.897 52.735.652 68.2.068z"/>
            <circle cx="4" cy="55" r="4" stroke="#00ABB7" stroke-width="3"/>
            <circle cx="131" cy="81" r="4" stroke="#00ABB7" stroke-width="3"/>
            <circle cx="131" cy="81" r="11" stroke="#005E91" opacity=".238"/>
            <circle cx="35" cy="96" r="4" stroke="#005E91" stroke-width="3"/>
            <circle cx="35" cy="96" r="11" stroke="#005E91" opacity=".341"/>
        </g>
    </g>
</svg>
