<svg xmlns="http://www.w3.org/2000/svg" width="320" height="183" viewBox="0 0 320 183">
    <g fill="none" fill-rule="evenodd">
        <path fill="#FFF" d="M0 0h320v183H0z"/>
        <g transform="translate(123 24)">
            <rect width="104" height="3.519" y="7.741" fill="#F2F2F2" rx="1.75"/>
            <rect width="104" height="3.519" y="51.889" fill="#F2F2F2" rx="1.75"/>
            <rect width="104" height="3.519" y="96.037" fill="#F2F2F2" rx="1.75"/>
            <g fill="#D6D6D6">
                <path d="M11 6h2v7h-2zM27 6h2v7h-2zM43 6h2v7h-2zM59 6h2v7h-2zM75 6h2v7h-2zM91 6h2v7h-2z"/>
            </g>
            <g fill="#D6D6D6">
                <path d="M11 50h2v7h-2zM27 50h2v7h-2zM43 50h2v7h-2zM59 50h2v7h-2zM75 50h2v7h-2zM91 50h2v7h-2z"/>
            </g>
            <g fill="#D6D6D6">
                <path d="M11 95h2v7h-2zM27 95h2v7h-2zM43 95h2v7h-2zM59 95h2v7h-2zM75 95h2v7h-2zM91 95h2v7h-2z"/>
            </g>
            <rect width="9.074" height="19.704" x="23.336" fill="#005E91" rx="2.8"/>
            <rect width="9.074" height="19.704" x="71.517" y="44.148" fill="#005E91" rx="2.8"/>
            <rect width="9.074" height="19.704" x="38.107" y="88.296" fill="#005E91" rx="2.8"/>
        </g>
        <path d="M81 21h24v24H81z"/>
        <path fill="#00ABB7" fill-rule="nonzero" d="M101 42c-1.39 0-2.78-.47-4-1.32-2.44 1.71-5.56 1.71-8 0-1.22.85-2.61 1.32-4 1.32h-2v2h2c1.38 0 2.74-.35 4-.99a8.752 8.752 0 0 0 8 0c1.26.65 2.62.99 4 .99h2v-2h-2zm-16.05-2H85c1.6 0 3.02-.88 4-2 .98 1.12 2.4 2 4 2s3.02-.88 4-2c.98 1.12 2.4 2 4 2h.05l1.89-6.68c.08-.26.06-.54-.06-.78a.997.997 0 0 0-.6-.5l-1.28-.42V27c0-1.1-.9-2-2-2h-3v-3h-6v3h-3c-1.1 0-2 .9-2 2v4.62l-1.29.42a1.007 1.007 0 0 0-.66 1.28l1.9 6.68zM87 27h12v3.97L93 29l-6 1.97V27z"/>
        <path d="M81 66h24v24H81z"/>
        <path fill="#00ABB7" fill-rule="nonzero" d="M97.24 73.76A5.974 5.974 0 0 0 93 72v6l-4.24 4.24c2.34 2.34 6.14 2.34 8.49 0a5.99 5.99 0 0 0-.01-8.48zM93 68c-5.52 0-10 4.48-10 10s4.48 10 10 10 10-4.48 10-10-4.48-10-10-10zm0 18c-4.42 0-8-3.58-8-8s3.58-8 8-8 8 3.58 8 8-3.58 8-8 8z"/>
        <g fill="#00ABB7" fill-rule="nonzero">
            <path d="M92 125c1.38 0 2.63-.56 3.536-1.465A4.988 4.988 0 0 0 97 120c0-1.38-.56-2.63-1.464-3.535A4.988 4.988 0 0 0 92 115c-1.38 0-2.63.56-3.536 1.465A4.988 4.988 0 0 0 87 120c0 1.38.56 2.63 1.464 3.535A4.988 4.988 0 0 0 92 125zm0 7c3.518 0 6-1 6-2 0-2-2.354-4-6-4-3.75 0-6 2-6 4 0 1 2.25 2 6 2zm12-9h-2v-2a1 1 0 1 0-2 0v2h-2a1 1 0 1 0 0 2h2v2a1 1 0 1 0 2 0v-2h2a1 1 0 1 0 0-2z"/>
        </g>
    </g>
</svg>
