<svg xmlns="http://www.w3.org/2000/svg" width="320" height="183" viewBox="0 0 320 183">
    <g fill="none" fill-rule="evenodd">
        <path fill="#FFF" d="M0 0h320v183H0z"/>
        <g fill="#F2F2F2">
            <path fill-rule="nonzero" d="M184.5 123.773c-4.256 0-8.512-1.418-12.248-3.984-7.471 5.162-17.025 5.162-24.497 0-3.736 2.566-7.992 3.984-12.249 3.984h-6.124v6.037h6.124c4.226 0 8.39-1.057 12.249-2.988a27.149 27.149 0 0 0 24.497 0c3.858 1.962 8.023 2.988 12.249 2.988h6.124v-6.037h-6.124zm52.494 0c-4.257 0-8.513-1.418-12.249-3.984-7.472 5.162-17.026 5.162-24.497 0-3.736 2.566-7.992 3.984-12.249 3.984h-6.124v6.037h6.124c4.226 0 8.39-1.057 12.249-2.988a27.149 27.149 0 0 0 24.497 0c3.858 1.962 8.023 2.988 12.249 2.988h4.374l2.625-6.037h-7zm-105 0c-4.257 0-8.513-1.418-12.249-3.984-7.472 5.162-17.026 5.162-24.497 0-3.736 2.566-7.992 3.984-12.249 3.984H76l2.625 5.627 4.374.41c4.226 0 8.39-1.057 12.249-2.988a27.149 27.149 0 0 0 24.497 0c3.858 1.962 8.023 2.988 12.249 2.988h6.124v-6.037h-6.124zm3.36-6.446h.152c4.9 0 9.248-2.656 12.249-6.036 3 3.38 7.35 6.036 12.249 6.036 4.899 0 9.247-2.656 12.248-6.036 3.001 3.38 7.35 6.036 12.249 6.036h.153l5.787-20.161a3.136 3.136 0 0 0-.183-2.354c-.368-.725-1.042-1.268-1.838-1.51l-3.92-1.267V78.09c0-3.32-2.755-6.036-6.124-6.036h-9.186V63h-18.373v9.055h-9.186c-3.369 0-6.125 2.716-6.125 6.036v13.944l-3.95 1.268c-.796.241-1.47.784-1.837 1.509-.367.724-.46 1.57-.184 2.354l5.818 20.161zm6.277-39.236h36.745v11.982l-18.372-5.946-18.373 5.946V78.091z"/>
            <path d="M209.869 139.5c-4.257 0-8.513-1.419-12.249-3.984-7.472 5.16-17.026 5.16-24.497 0-3.736 2.565-7.992 3.984-12.249 3.984h-6.124v6.036h6.124c4.226 0 8.39-1.056 12.249-2.988a27.149 27.149 0 0 0 24.497 0c3.858 1.962 8.023 2.988 12.249 2.988h4.374l2.625-6.036h-7z"/>
            <path d="M109 139.5c4.256 0 8.512-1.419 12.248-3.984 7.471 5.16 17.025 5.16 24.497 0 3.736 2.565 7.992 3.984 12.249 3.984h6.124v6.036h-6.124c-4.226 0-8.39-1.056-12.249-2.988a27.149 27.149 0 0 1-24.497 0c-3.858 1.962-8.023 2.988-12.249 2.988h-4.374L102 139.5h7z"/>
            <g fill-rule="nonzero">
                <path d="M72.516 117.128h.09c4.108.872 10.108.872 14.407 0 4.299-.872 5.439-1.62 7.203-3.68 1.765 2.06 4.322 3.68 7.204 3.68h.09l3.404-12.294a1.977 1.977 0 0 0-.108-1.436 1.805 1.805 0 0 0-1.081-.92l-2.305-.773v-8.503c0-2.024-1.62-3.68-3.602-3.68h-5.402V84H81.61v5.521h-5.402c-1.981 0-3.602 1.657-3.602 3.681v8.503l-2.323.773a1.805 1.805 0 0 0-1.08.92 1.89 1.89 0 0 0-.109 1.436l3.422 12.294zm3.692-23.926h21.61v7.307l-10.805-3.626-10.805 3.626v-7.307z"/>
            </g>
            <g fill-rule="nonzero">
                <path d="M247.484 117.128h-.09c-4.108.872-10.108.872-14.407 0-4.299-.872-5.439-1.62-7.203-3.68-1.765 2.06-4.322 3.68-7.204 3.68h-.09l-3.404-12.294a1.977 1.977 0 0 1 .108-1.436 1.805 1.805 0 0 1 1.081-.92l2.305-.773v-8.503c0-2.024 1.62-3.68 3.602-3.68h5.402V84h10.806v5.521h5.402c1.981 0 3.602 1.657 3.602 3.681v8.503l2.323.773c.468.147.865.479 1.08.92.217.442.27.957.109 1.436l-3.422 12.294zm-3.692-23.926h-21.61v7.307l10.805-3.626 10.805 3.626v-7.307z"/>
            </g>
        </g>
        <path fill="#005E91" d="M159.201 15.023c-15.466.584-28.181 12.829-29.14 28.093-.552 8.775 2.713 16.8 8.31 22.614l18.4 20.608c1.923 2.155 5.324 2.155 7.248 0l18.4-20.609c5.188-5.387 8.37-12.674 8.37-20.695 0-16.98-14.258-30.667-31.588-30.011z"/>
        <path stroke="#FFF" stroke-linecap="round" stroke-linejoin="round" stroke-width="3.84" d="M145.353 77.112a23.88 23.88 0 0 1-.315-3.88c0-7.977 3.892-14.82 9.44-17.744M166.126 55.294c5.75 2.804 9.822 9.778 9.822 17.937 0 1.185-.085 2.344-.25 3.469"/>
        <path stroke="#FFF" stroke-linecap="round" stroke-linejoin="round" stroke-width="1.92" d="M160.493 56.934v6.933M160.493 68.573v2.018"/>
        <path fill="#FFF" d="M151.719 68.75l.489 11.766c.03.74-.374 1.375-.901 1.418-.527.043-.98-.523-1.01-1.263a1.407 1.407 0 0 1 0-.155l.487-11.766c.015-.362.237-.64.494-.616.24.018.427.288.44.616M170.252 68.51l.439 11.751c.027.74-.379 1.37-.905 1.409-.528.038-.979-.53-1.006-1.27a3.381 3.381 0 0 1 0-.139l.44-11.75c.014-.401.256-.708.542-.686.267.019.475.321.49.685M133.723 36.384l15.686 24.23a.955.955 0 1 1-1.604 1.04l-.02-.032-14.73-24.824a.392.392 0 0 1 .668-.414"/>
        <path stroke="#FFF" stroke-linecap="round" stroke-linejoin="round" stroke-width="1.92" d="M138.129 42.023l-.99.615M140.629 46.056l-.99.614M143.23 50.25l-.99.615M145.867 54.503l-3.486 2.161M142.868 58.22a2.732 2.732 0 1 1-5.463-.002 2.732 2.732 0 0 1 5.463.002z"/>
        <path stroke="#FFF" stroke-linecap="round" stroke-linejoin="round" stroke-width="3.84" d="M169.735 46.363c0 5.723-4.389 10.363-9.803 10.363-5.415 0-9.804-4.64-9.804-10.363 0-5.724 4.389-10.363 9.804-10.363 5.414 0 9.803 4.64 9.803 10.363z"/>
        <path fill="#FFF" d="M145.038 40.616l23.214-.982a1.912 1.912 0 1 1 0 3.821l-23.214-.982a.931.931 0 0 1-.89-.967.933.933 0 0 1 .89-.89"/>
    </g>
</svg>
