<svg xmlns="http://www.w3.org/2000/svg" xmlns:xlink="http://www.w3.org/1999/xlink" width="320" height="183" viewBox="0 0 320 183">
    <defs>
        <path id="a" d="M5.978 54.327L.16 34.166c-.275-.785-.183-1.63.184-2.354.367-.725 1.041-1.268 1.837-1.51l3.95-1.267V15.09c0-3.32 2.756-6.036 6.125-6.036h9.186V0h18.373v9.055h9.186c3.369 0 6.125 2.716 6.125 6.036v13.944l3.92 1.268c.795.241 1.47.784 1.837 1.509.367.724.428 1.57.183 2.354L55.28 54.327h-.153c-4.9 0-9.248-2.656-12.249-6.036-3 3.38-7.349 6.036-12.248 6.036-4.9 0-9.248-2.656-12.249-6.036-3 3.38-7.35 6.036-12.249 6.036h-.153zm6.278-39.236v11.982l18.373-5.946L49 27.073V15.091H12.256z"/>
        <linearGradient id="b" x1="46.034%" x2="19.983%" y1="53.686%" y2="81.308%">
            <stop offset="0%" stop-color="#005E91"/>
            <stop offset="100%" stop-color="#00ABB7"/>
        </linearGradient>
    </defs>
    <g fill="none" fill-rule="evenodd">
        <path fill="#FFF" d="M0 0h320v183H0z"/>
        <g fill="#F2F2F2">
            <path fill-rule="nonzero" d="M184.5 129.773c-4.256 0-8.512-1.418-12.248-3.984-7.471 5.162-17.025 5.162-24.497 0-3.736 2.566-7.992 3.984-12.249 3.984h-6.124v6.037h6.124c4.226 0 8.39-1.057 12.249-2.988a27.149 27.149 0 0 0 24.497 0c3.858 1.962 8.023 2.988 12.249 2.988h6.124v-6.037h-6.124zm52.494 0c-4.257 0-8.513-1.418-12.249-3.984-7.472 5.162-17.026 5.162-24.497 0-3.736 2.566-7.992 3.984-12.249 3.984h-6.124v6.037h6.124c4.226 0 8.39-1.057 12.249-2.988a27.149 27.149 0 0 0 24.497 0c3.858 1.962 8.023 2.988 12.249 2.988h4.374l2.625-6.037h-7zm-105 0c-4.257 0-8.513-1.418-12.249-3.984-7.472 5.162-17.026 5.162-24.497 0-3.736 2.566-7.992 3.984-12.249 3.984H76l2.625 5.627 4.374.41c4.226 0 8.39-1.057 12.249-2.988a27.149 27.149 0 0 0 24.497 0c3.858 1.962 8.023 2.988 12.249 2.988h6.124v-6.037h-6.124z"/>
            <path d="M209.869 145.5c-4.257 0-8.513-1.419-12.249-3.984-7.472 5.16-17.026 5.16-24.497 0-3.736 2.565-7.992 3.984-12.249 3.984h-6.124v6.036h6.124c4.226 0 8.39-1.056 12.249-2.988a27.149 27.149 0 0 0 24.497 0c3.858 1.962 8.023 2.988 12.249 2.988h4.374l2.625-6.036h-7z"/>
            <path d="M109 145.5c4.256 0 8.512-1.419 12.248-3.984 7.471 5.16 17.025 5.16 24.497 0 3.736 2.565 7.992 3.984 12.249 3.984h6.124v6.036h-6.124c-4.226 0-8.39-1.056-12.249-2.988a27.149 27.149 0 0 1-24.497 0c-3.858 1.962-8.023 2.988-12.249 2.988h-4.374L102 145.5h7z"/>
            <g fill-rule="nonzero">
                <path d="M72.516 123.128h.09c4.108.872 10.108.872 14.407 0 4.299-.872 5.439-1.62 7.203-3.68 1.765 2.06 4.322 3.68 7.204 3.68h.09l3.404-12.294a1.977 1.977 0 0 0-.108-1.436 1.805 1.805 0 0 0-1.081-.92l-2.305-.773v-8.503c0-2.024-1.62-3.68-3.602-3.68h-5.402V90H81.61v5.521h-5.402c-1.981 0-3.602 1.657-3.602 3.681v8.503l-2.323.773a1.805 1.805 0 0 0-1.08.92 1.89 1.89 0 0 0-.109 1.436l3.422 12.294zm3.692-23.926h21.61v7.307l-10.805-3.626-10.805 3.626v-7.307z"/>
            </g>
            <g fill-rule="nonzero">
                <path d="M247.484 123.128h-.09c-4.108.872-10.108.872-14.407 0-4.299-.872-5.439-1.62-7.203-3.68-1.765 2.06-4.322 3.68-7.204 3.68h-.09l-3.404-12.294a1.977 1.977 0 0 1 .108-1.436 1.805 1.805 0 0 1 1.081-.92l2.305-.773v-8.503c0-2.024 1.62-3.68 3.602-3.68h5.402V90h10.806v5.521h5.402c1.981 0 3.602 1.657 3.602 3.681v8.503l2.323.773c.468.147.865.479 1.08.92.217.442.27.957.109 1.436l-3.422 12.294zm-3.692-23.926h-21.61v7.307l10.805-3.626 10.805 3.626v-7.307z"/>
            </g>
        </g>
        <path fill="#005E91" d="M123.756 53.188l16.417 25.364a1 1 0 0 1-1.68 1.087l-.02-.033-15.415-25.985a.41.41 0 0 1 .698-.433"/>
        <path stroke="#005E91" stroke-linecap="round" stroke-linejoin="round" stroke-width="2" d="M128.367 59.091l-1.037.643M130.983 63.312l-1.036.643M133.706 67.702l-1.037.643M136.466 72.154l-3.648 2.263M133.327 76.044a2.859 2.859 0 1 1-5.718 0 2.859 2.859 0 0 1 5.718 0z"/>
        <g transform="translate(129.375 69)">
            <mask id="c" fill="#fff">
                <use xlink:href="#a"/>
            </mask>
            <use fill="#005E91" xlink:href="#a"/>
            <path fill="url(#b)" d="M31-11h53v78H31z" mask="url(#c)"/>
        </g>
        <path fill="#00ABB7" d="M87.647 49.007c5.131-.198 9.353 3.93 9.353 9.05a9.054 9.054 0 0 1-2.478 6.24l-5.449 6.216c-.57.65-1.576.65-2.146 0l-5.448-6.215a9.067 9.067 0 0 1-2.461-6.82c.284-4.602 4.05-8.295 8.629-8.471z"/>
        <path fill="#005E91" d="M159.372 18.012c9.123-.36 16.628 7.146 16.628 16.455 0 4.398-1.675 8.394-4.406 11.347l-9.686 11.3a2.497 2.497 0 0 1-3.815 0l-9.687-11.3c-2.946-3.187-4.664-7.587-4.374-12.398.505-8.37 7.198-15.083 15.34-15.404z"/>
        <path fill="#00ABB7" d="M232.647 49.007c5.131-.198 9.353 3.93 9.353 9.05a9.054 9.054 0 0 1-2.478 6.24l-5.449 6.216c-.57.65-1.576.65-2.146 0l-5.448-6.215a9.067 9.067 0 0 1-2.461-6.82c.284-4.602 4.05-8.295 8.629-8.471z"/>
        <g fill="#FFF" fill-rule="nonzero">
            <path d="M169.811 30.48a.624.624 0 0 1 0 .894l-12.602 12.427c-.101.1-.303.199-.454.199v-.05l-.05.05c-.152 0-.303-.1-.404-.199l-6.1-6.014a.736.736 0 0 1-.201-.448c0-.149.1-.348.202-.447l3.327-3.28a.586.586 0 0 1 .857 0l2.369 2.335 8.872-8.748c.1-.1.252-.199.403-.199.151 0 .353.1.454.199l3.327 3.28z"/>
        </g>
    </g>
</svg>
