<svg xmlns="http://www.w3.org/2000/svg" xmlns:xlink="http://www.w3.org/1999/xlink" width="320" height="183" viewBox="0 0 320 183">
    <defs>
        <path id="a" d="M0 0h320v183H0z"/>
        <path id="c" d="M0 .355h2.376v4.207H0z"/>
        <path id="e" d="M.576.361h1.351v3.207H.576z"/>
    </defs>
    <g fill="none" fill-rule="evenodd">
        <g>
            <mask id="b" fill="#fff">
                <use xlink:href="#a"/>
            </mask>
            <use fill="#FFF" xlink:href="#a"/>
            <g mask="url(#b)" opacity=".559">
                <path fill="#999" d="M154.564 76.429l-1.334.244c-.535.098-.985-.303-1.006-.895-.02-.588.394-1.146.926-1.247l.056-.01 1.223-.233.055-.01c.537-.102.993.296 1.016.89.024.594-.393 1.157-.93 1.26h-.006zM148.608 77.13l-2.432-.194c-.477-.038-.764-.538-.643-1.115.121-.576.603-1.012 1.077-.979l.099.008 2.239.162.098.006c.481.035.775.536.656 1.12-.12.583-.607 1.027-1.088.993h-.006zM142.396 75.296l-2.672-1.24c-.511-.238-.743-.827-.515-1.316.227-.488.824-.691 1.335-.458l.107.05 2.465 1.126.107.049c.518.237.755.83.528 1.325-.227.494-.831.703-1.35.467l-.005-.003zM136.898 72.796l-1.755-1.783c-.33-.334-.316-.968.033-1.414.347-.445.894-.536 1.225-.206l.068.068 1.63 1.63.07.07c.334.335.323.973-.027 1.426-.35.453-.904.548-1.24.213l-.004-.004zM132.4 67.41l-1.47-2.145c-.272-.394-.166-.903.234-1.137.399-.233.94-.105 1.21.285l.06.084 1.367 1.97.06.084c.274.396.171.911-.231 1.15-.403.239-.951.11-1.227-.286l-.003-.004zM129.577 61.561l-.472-2.578c-.085-.464.19-.974.614-1.14.422-.165.833.075.92.534l.019.097.45 2.38.019.096c.088.468-.187.984-.615 1.154-.427.17-.846-.07-.934-.538v-.005zM127.632 55.044l-.092-2.62c-.017-.46.374-.816.871-.793.495.023.91.413.93.872l.004.093.102 2.433.004.094c.02.466-.372.827-.874.806-.502-.02-.925-.414-.944-.88l-.001-.005z"/>
                <g transform="rotate(24 -39.844 327.767)">
                    <mask id="d" fill="#fff">
                        <use xlink:href="#c"/>
                    </mask>
                    <path fill="#999" d="M.419 3.85l-.41-2.578C-.063.83.312.422.845.362c.53-.059 1.018.25 1.091.692l.016.09.399 2.395.016.09c.074.45-.301.862-.839.925-.537.062-1.033-.25-1.108-.698L.42 3.85z" mask="url(#d)"/>
                </g>
                <path fill="#999" d="M131.053 41.91l1.373-2.092c.23-.352.72-.445 1.09-.21.37.236.486.71.259 1.06l-.049.075-1.262 1.953-.049.074c-.23.357-.723.454-1.1.218-.377-.237-.495-.717-.265-1.074l.003-.004zM134.579 36.633l2.124-1.688c.35-.277.893-.219 1.215.128.32.347.3.85-.045 1.128l-.071.058-1.97 1.587-.071.056c-.35.283-.9.228-1.227-.122-.327-.35-.31-.861.041-1.143l.004-.004zM140.484 33.435l2.376-1.398c.38-.224.797-.074.93.335.133.408-.066.918-.443 1.144l-.08.047-2.21 1.32-.08.046c-.384.23-.806.08-.943-.331-.137-.412.062-.931.446-1.16l.004-.003zM146.328 30.573a23.464 23.464 0 0 1 2.835-.328.824.824 0 0 1 .868.75.781.781 0 0 1-.742.836c-.884.054-1.766.162-2.634.321a.835.835 0 0 1-.967-.64.786.786 0 0 1 .635-.938h.005zM153.184 30.426l2.573.488c.391.074.656.44.592.818a.69.69 0 0 1-.818.55l-.085-.015-2.407-.441-.084-.016c-.396-.073-.667-.441-.605-.824a.699.699 0 0 1 .83-.561h.004zM159.085 32.374l2.305 1.207c.342.179.439.693.215 1.147-.222.454-.677.678-1.018.502l-.07-.035-2.174-1.115-.07-.037c-.348-.177-.447-.696-.225-1.158.224-.46.687-.69 1.033-.512l.004.001zM165.25 36.25l2.039 1.74c.294.25.333.653.086.898-.245.244-.681.24-.976-.009l-.059-.05-1.93-1.628-.06-.05c-.3-.254-.341-.66-.093-.91.247-.25.69-.247.99.006l.003.002zM169.843 40.583l.534 1.098c.171.367.37.732.516 1.1l.011.028c.129.324-.015.751-.32.954-.304.202-.653.106-.783-.215-.153-.378-.336-.697-.501-1.048l-.51-1.033-.027-.054c-.153-.311-.036-.75.262-.98.298-.23.663-.164.817.147v.003zM172.809 46.299l1.01 2.226c.14.313.012.727-.287.926-.298.199-.654.108-.797-.201l-1.022-2.218c-.145-.315-.018-.736.284-.94.303-.202.665-.112.81.203l.002.004zM175.667 51.93c.325.732.694 1.424 1.104 2.073.172.274.093.731-.178 1.021-.269.29-.626.305-.8.035-.439-.687-.836-1.42-1.187-2.194-.14-.31-.017-.772.275-1.03.293-.26.644-.218.785.093l.001.003zM180.363 56.104c.682.571 1.4 1.094 2.15 1.564.306.192.391.623.19.96-.201.337-.61.455-.917.266a20.534 20.534 0 0 1-2.295-1.647c-.284-.235-.318-.681-.078-.998.24-.316.664-.382.947-.148l.003.003zM185.467 58.83c.839.296 1.702.526 2.583.686.348.063.544.448.437.857-.106.408-.474.689-.82.628a17.76 17.76 0 0 1-2.754-.711c-.337-.115-.486-.537-.334-.94.153-.405.548-.638.885-.522l.003.001zM192.162 60.283c.722.016 1.444-.018 2.16-.102a.505.505 0 0 1 .56.431.486.486 0 0 1-.426.548 16.67 16.67 0 0 1-2.299.123.511.511 0 0 1-.505-.508c0-.276.227-.497.507-.492h.003zM197.846 59.51a19.44 19.44 0 0 0 2.374-.938.597.597 0 0 1 .776.263.54.54 0 0 1-.244.744c-.809.39-1.647.726-2.505 1.009a.605.605 0 0 1-.75-.36.548.548 0 0 1 .346-.717l.003-.002zM203.32 56.76l.86-.688c.294-.221.554-.479.827-.723l.02-.019a.509.509 0 0 1 .694.035c.19.192.189.487 0 .661-.286.26-.559.534-.868.77l-.903.732a.518.518 0 0 1-.703-.07.458.458 0 0 1 .039-.67l.002-.002.031-.025z"/>
                <g transform="rotate(24 -10.479 513.486)">
                    <mask id="f" fill="#fff">
                        <use xlink:href="#e"/>
                    </mask>
                    <path fill="#999" d="M.584 3.023A14.68 14.68 0 0 0 .856.803c.012-.254.26-.451.557-.442.294.01.523.222.514.475-.03.784-.12 1.568-.27 2.342-.05.254-.33.426-.626.384C.735 3.52.535 3.28.583 3.026v-.003z" mask="url(#f)"/>
                </g>
                <path fill="#999" d="M209.98 45.879a12.16 12.16 0 0 0 .21-2.198c.002-.245.273-.383.604-.307.33.075.597.333.599.577.002.79-.066 1.564-.202 2.317-.044.237-.35.343-.684.236-.334-.106-.571-.385-.528-.623l.001-.002zM210.578 40.798a18.946 18.946 0 0 0-.204-2.325.479.479 0 0 1 .349-.534.392.392 0 0 1 .48.334c.126.802.202 1.617.229 2.438a.482.482 0 0 1-.413.496c-.236.025-.434-.156-.441-.406v-.003zM208.9 34.684a20.644 20.644 0 0 0-1.054-2.537.577.577 0 0 1 .21-.72c.237-.153.526-.08.649.162.428.85.802 1.736 1.12 2.648a.59.59 0 0 1-.296.707.443.443 0 0 1-.629-.258v-.002zM205.218 28.776l-1.543-1.768-.027-.031c-.146-.169-.126-.467.045-.666.171-.2.428-.226.575-.06l1.612 1.821c.15.17.13.474-.043.678-.173.204-.436.233-.587.062l-.002-.002-.03-.034zM200.605 24.56c-.283-.28-.547-.607-.82-.915l-.811-.934c-.142-.164-.12-.461.047-.664.168-.202.417-.235.56-.074l.024.027.79.897c.268.296.518.603.807.886.155.152.151.453-.01.671-.161.218-.419.271-.575.118l-.001-.002-.011-.01zM197.116 19.684a21.36 21.36 0 0 1-1.44-2.138c-.106-.182-.032-.377.167-.435a.512.512 0 0 1 .552.223c.416.699.883 1.383 1.395 2.047.137.176.096.387-.09.472-.186.084-.447.009-.583-.167l-.001-.002zM194.246 13.918a21.049 21.049 0 0 1-.275-2.605.406.406 0 0 1 .34-.422c.195-.025.361.123.372.33.042.844.135 1.682.28 2.504a.421.421 0 0 1-.293.473.337.337 0 0 1-.424-.278v-.002z"/>
            </g>
        </g>
        <path fill="#008CB7" d="M153.888 82.727s5.004 1.757 7.235 8.435c2.23 6.679 4.437 8.666 6.45 4.715C169.583 91.927 177 101 174 109c-3 8 11.883-7.86 11.883-7.86L173.81 79.379l-19.922 3.349z"/>
        <path fill="#00ABB7" d="M151 50a6 6 0 1 1-12 0 6 6 0 0 1 12 0"/>
        <path fill="#005E91" d="M164.424 63.21c.309-.022.62-.038.934-.038.068 0 .134.004.2.005l-1.134.033zm-5.843 9.909a2.017 2.017 0 0 1-2.02-2.015c0-1.112.905-2.014 2.02-2.014s2.02.902 2.02 2.014a2.017 2.017 0 0 1-2.02 2.015zm39.22 3.236c-2.823-1.058-5.302-2.835-7.283-5.097C185.004 64.97 176.902 61 167.87 61l-.402.003c-.38.006-.759.017-1.135.034-6.413.478-19.794 4.746-18.844 14.519.758 7.823 11.014 8.031 16.036 9.613.652.107 1.288.255 1.91.44 6.575 1.968 11.28 8.259 10.786 15.565-.488 7.255-6.202 13.21-13.45 14.015a15.15 15.15 0 0 1-5.072-.281c-1.271-.287-2.093-1.55-1.774-2.81a8.678 8.678 0 0 0 .266-2.139 8.668 8.668 0 0 0-1.375-4.692c-.51-.796-1.688-.72-2.118.125a19.726 19.726 0 0 1-2.415 3.683c-.251.305-.517.597-.784.884a20.057 20.057 0 0 1-6.612 4.688c-1.104.483-1.193 2.002-.18 2.653a8.705 8.705 0 0 0 4.733 1.388 8.776 8.776 0 0 0 3.21-.606c1.517-.597 3.214-.477 4.697.201A30.03 30.03 0 0 0 167.87 121a30.018 30.018 0 0 0 21.655-9.184 29.995 29.995 0 0 0 6.912-11.41A29.92 29.92 0 0 0 197.948 91v-.023c-.003-1.206 1.283-1.968 2.353-1.41a12.472 12.472 0 0 1 3.062 2.246c.744.748 2.019.407 2.27-.614.242-.973.367-1.986.367-3.03 0-5.408-3.41-10.018-8.2-11.813z"/>
        <path fill="#00ABB7" d="M190 54.5a1.5 1.5 0 1 1-3 0 1.5 1.5 0 0 1 3 0M170 103.5a1.5 1.5 0 1 1-3 0 1.5 1.5 0 0 1 3 0"/>
        <path fill="#FFF" d="M191 94.5a1.5 1.5 0 1 1-3 0 1.5 1.5 0 0 1 3 0M191 117a6 6 0 1 1-12 0 6 6 0 0 1 12 0" opacity=".333"/>
        <path fill="#00ABB7" d="M136 83a3 3 0 1 1-6 0 3 3 0 0 1 6 0"/>
        <path fill="#FFF" d="M150 51a3 3 0 1 1-6 0 3 3 0 0 1 6 0M135 84a1 1 0 1 1-2 0 1 1 0 0 1 2 0"/>
        <path fill="#00ABB7" d="M182 37.5a1.5 1.5 0 1 1-3 0 1.5 1.5 0 0 1 3 0"/>
    </g>
</svg>
