<svg xmlns="http://www.w3.org/2000/svg" xmlns:xlink="http://www.w3.org/1999/xlink" width="320" height="183" viewBox="0 0 320 183">
    <defs>
        <path id="a" d="M.294.068h4.783V7H.295z"/>
    </defs>
    <g fill="none" fill-rule="evenodd">
        <path fill="#FFF" d="M0 0h320v183H0z"/>
        <path fill="#005E91" d="M132.556 101.136l10.854-7.26a18.958 18.958 0 0 0 6.345 6.395l-7.263 10.854a32.171 32.171 0 0 1-9.933-9.984l-.003-.005zm-4.886-16.944c0-5.25 1.283-10.21 3.545-14.582l-.006-.006 10.964 7.332a18.757 18.757 0 0 0-1.452 7.256c0 2.503.497 4.888 1.387 7.074l-10.983 7.345a31.733 31.733 0 0 1-3.455-14.42zm14.916-26.994l7.265 10.86a18.989 18.989 0 0 0-6.339 6.285l-10.855-7.258a32.159 32.159 0 0 1 9.93-9.887zm16.99-4.918c5.203 0 10.12 1.26 14.46 3.482l-7.339 10.975a18.778 18.778 0 0 0-7.12-1.402c-2.522 0-4.924.5-7.12 1.399l-7.343-10.972a31.673 31.673 0 0 1 14.461-3.482zm26.898 14.795l-10.849 7.26a18.869 18.869 0 0 0-6.325-6.273l7.265-10.856a32.188 32.188 0 0 1 9.91 9.869zm5.007 17.117a31.666 31.666 0 0 1-3.463 14.432L177.04 91.28a18.76 18.76 0 0 0 1.388-7.088c0-2.58-.518-5.034-1.453-7.272h-.003l10.96-7.327a31.697 31.697 0 0 1 3.55 14.599zm-14.83 26.928v.003l-7.264-10.861a18.902 18.902 0 0 0 6.334-6.377l10.86 7.265a32.16 32.16 0 0 1-9.93 9.97zm-17.076-10.972c-8.799 0-15.955-7.16-15.955-15.956 0-8.795 7.156-15.953 15.955-15.953 8.797 0 15.953 7.155 15.953 15.953 0 8.798-7.156 15.954-15.956 15.954l.003.002zm-.003 15.954a31.641 31.641 0 0 1-14.554-3.531l7.33-10.961a18.81 18.81 0 0 0 14.446 0l7.332 10.964a31.68 31.68 0 0 1-14.554 3.528zm.003 2.9c19.226 0 34.81-15.59 34.81-34.81 0-19.221-15.59-34.81-34.81-34.81-19.225 0-34.81 15.583-34.81 34.81 0 19.226 15.588 34.807 34.81 34.81z"/>
        <path fill="#000" d="M126.19 39.397l3.25-1.86c-.498-.87-.696-1.68-.595-2.432.102-.751.538-1.348 1.31-1.788.693-.398 1.356-.481 1.99-.251.632.23 1.15.696 1.551 1.398.302.527.464 1.19.486 1.993.024.8-.098 1.872-.366 3.21l-2.084 8.86 1.25 2.187 11.375-6.506-2.409-4.212-2.54 1.453.805 1.726-4.326 2.475-.055-.044 1.111-4.934c.496-2.106.776-3.745.841-4.916a5.81 5.81 0 0 0-.768-3.267c-.85-1.488-2.023-2.396-3.518-2.726-1.496-.33-3.1-.003-4.817.979-1.74.995-2.825 2.306-3.255 3.935-.43 1.628-.197 3.183.701 4.664l.062.056zM149.12 29.373l.203-.605.083.01 1.35 6.788-4.331.863 2.696-7.056zm2.135 8.702l.368 1.85-1.94.79.45 2.262 7.784-1.549-.45-2.263-2.081.011-.37-1.849 2.135-.425-.5-2.508-2.133.424L152.168 23l-3.802.756-5.341 14.034.549 1.813 7.68-1.528zM170.928 23.78l-2.275-.38-3.738 22.445 2.277.38zM182.61 46.438c1.754-2.386 3.478-4.293 5.172-5.72 1.692-1.427 4.032-2.67 7.017-3.724l1.486-2.57-11.745-6.788-2.435 4.212 2.557 1.478 1.075-1.572 5.855 3.385a23.98 23.98 0 0 0-6.759 3.608c-2.034 1.55-3.886 3.47-5.557 5.764l-1.136 1.598 3.333 1.926 1.136-1.597zM117.844 103.942l-.614-1.525c-.294.117-.565.121-.813.01-.247-.11-.431-.316-.552-.617-.183-.454-.141-.84.127-1.159.268-.317.681-.59 1.24-.813l.175-.072c.546-.22 1.033-.302 1.458-.244.426.057.736.325.927.802.064.159.097.308.098.451.002.143-.018.271-.057.385l-.865.672.552 1.37 1.66-.697c.167-.374.245-.793.234-1.254a4.135 4.135 0 0 0-.321-1.45c-.386-.96-.98-1.58-1.782-1.859-.802-.278-1.663-.232-2.584.138l-.173.069c-.925.371-1.581.93-1.967 1.671-.387.742-.392 1.58-.017 2.512.293.728.75 1.252 1.374 1.569.622.318 1.246.343 1.872.073l.028-.032zM125.584 108.359l-.958-1.547-.42-.678-.932.578.26.775-3.087 1.913a1.295 1.295 0 0 1-.612-.227 1.814 1.814 0 0 1-.512-.558c-.17-.276-.208-.54-.112-.791.096-.252.352-.507.769-.766l3.469-2.148-.958-1.546-.39-.63-.932.577.23.728-2.367 1.465c-.815.505-1.31 1.05-1.485 1.63-.175.582-.075 1.175.299 1.78.214.346.477.61.789.79.312.18.659.28 1.042.297l-.664.55 1.269 2.05.927-.575-.271-.791 4.646-2.876zM128.302 115.114l1.243-1.123c-.011-.345-.118-.739-.321-1.184a5.113 5.113 0 0 0-.825-1.253c-.57-.644-1.161-1.005-1.776-1.084-.614-.077-1.134.071-1.556.445-.411.363-.602.802-.572 1.315.03.514.246 1.122.65 1.823.263.467.404.822.425 1.064.02.243-.044.43-.194.562a.624.624 0 0 1-.598.142c-.227-.057-.463-.224-.708-.5a2.583 2.583 0 0 1-.34-.483 1.046 1.046 0 0 1-.14-.466l.492-.768-.84-.953-1.124 1.017c.013.44.105.871.279 1.297.173.425.431.833.775 1.222.565.638 1.163 1.026 1.796 1.161.632.137 1.176.004 1.631-.397.424-.374.623-.818.598-1.334-.028-.515-.254-1.14-.682-1.876-.276-.47-.423-.816-.441-1.04a.616.616 0 0 1 .203-.537.654.654 0 0 1 .59-.147c.231.045.452.188.663.428.153.171.266.35.34.535.077.186.119.36.126.518l-.503.701.809.915zM129.624 120.457a.575.575 0 0 1-.22-.413c-.007-.155.075-.332.247-.529l2.253-2.59.893.777.839-.964-.894-.776 1.084-1.246-1.367-1.19-1.084 1.245-.747-.65-.84.964.749.65-2.258 2.594c-.491.565-.721 1.087-.692 1.57.028.482.28.93.753 1.34.176.153.348.283.519.391.17.106.354.204.548.29l.745-1.094a3.047 3.047 0 0 1-.271-.166 3.113 3.113 0 0 1-.257-.203M136.004 122.404l-.071.11c-.336.51-.698.861-1.085 1.053-.388.192-.78.16-1.17-.099-.403-.264-.592-.612-.568-1.04.024-.43.206-.9.543-1.415l.072-.109c.329-.499.687-.848 1.076-1.045.388-.196.779-.165 1.175.096.395.26.582.608.557 1.045-.023.436-.2.905-.53 1.404zm1.515.997c.554-.843.773-1.686.654-2.53-.118-.844-.594-1.539-1.426-2.087-.83-.546-1.655-.706-2.478-.48-.824.227-1.511.76-2.064 1.6l-.071.11c-.558.846-.776 1.69-.657 2.532.12.841.597 1.538 1.433 2.088.826.543 1.65.704 2.47.481.82-.224 1.51-.758 2.066-1.605l.073-.109zM147.492 123.918c-.42-.157-.821-.199-1.204-.126a2.331 2.331 0 0 0-1.056.508c-.012-.417-.13-.769-.348-1.056-.221-.287-.534-.507-.938-.658-.4-.15-.784-.2-1.151-.15a2.26 2.26 0 0 0-1.026.417l.244-.86-2.491-.936-.385 1.026.844.517-1.47 3.913-.89-.134-.382 1.02 3.254 1.223.384-1.02-.67-.452 1.28-3.405c.173-.117.362-.187.568-.21.206-.022.423.01.653.096.31.117.508.301.592.552.083.251.037.61-.14 1.076l-.987 2.63-.754-.083-.384 1.02 3.073 1.154.384-1.02-.622-.434 1.108-2.95c.02-.054.039-.108.055-.163.016-.054.038-.117.065-.19.177-.153.373-.248.59-.288a1.27 1.27 0 0 1 .688.075c.307.115.504.296.589.541.086.245.038.606-.142 1.085l-.988 2.63-.801-.102-.383 1.021 3.26 1.225.384-1.02-.757-.485.986-2.624c.33-.879.396-1.6.198-2.165-.198-.564-.608-.964-1.23-1.198M154.416 127.995l-.023.16-2.208-.314-.014-.033c.104-.41.27-.727.5-.955a.95.95 0 0 1 .845-.27c.36.052.615.204.76.458.148.254.194.571.14.954m-.703-2.8c-.916-.135-1.693.08-2.33.644-.635.564-1.024 1.342-1.164 2.333l-.035.246c-.136.95.04 1.774.528 2.473.488.7 1.213 1.117 2.176 1.253a4.554 4.554 0 0 0 1.496-.013c.459-.086.842-.218 1.148-.397l-.33-1.179a4.653 4.653 0 0 1-.917.256c-.274.042-.611.036-1.01-.02-.448-.065-.783-.257-1.004-.578-.22-.32-.316-.703-.286-1.149l.018-.035 3.984.568.14-.98c.132-.926-.013-1.695-.433-2.309-.421-.614-1.081-.985-1.981-1.113"/>
        <g transform="translate(157 125.506)">
            <mask id="b" fill="#fff">
                <use xlink:href="#a"/>
            </mask>
            <path fill="#000" d="M4.51.068a1.365 1.365 0 0 0-.86.308 2.12 2.12 0 0 0-.599.825L2.954.218.294.261l.02 1.097.968.171.067 4.18-.869.201L.498 7l3.563-.058-.018-1.09-.875-.173-.054-3.276c.089-.192.22-.343.393-.449.172-.107.391-.162.656-.166l.748.006.167-1.66A2.29 2.29 0 0 0 4.51.068" mask="url(#b)"/>
        </g>
        <path fill="#000" d="M171.284 127.736c-.462-.23-1.117-.34-1.97-.328-.545.011-.92-.03-1.122-.126a.614.614 0 0 1-.368-.44.656.656 0 0 1 .16-.585c.154-.18.387-.303.699-.37.224-.047.435-.058.634-.034.198.026.369.075.512.147l.365.781 1.194-.256-.37-1.635c-.305-.16-.701-.258-1.188-.3a5.138 5.138 0 0 0-1.497.105c-.841.18-1.445.519-1.815 1.016-.37.498-.495 1.022-.377 1.575.116.535.404.916.867 1.141.462.228 1.098.336 1.908.33.535 0 .913.05 1.135.15.22.102.352.25.394.445a.625.625 0 0 1-.17.59c-.161.172-.423.296-.784.373a2.637 2.637 0 0 1-.586.059 1.046 1.046 0 0 1-.475-.106l-.427-.806-1.243.265.335 1.477c.388.206.81.337 1.266.394.456.058.938.033 1.445-.077.833-.178 1.464-.51 1.893-.994.43-.484.58-1.023.454-1.616-.118-.553-.408-.945-.87-1.175M179.772 126.757l-2.036-5.07-1.688.677-.74.297.408 1.018.81-.123 1.353 3.37a1.298 1.298 0 0 1-.327.564c-.16.165-.373.301-.638.408-.3.121-.568.112-.799-.025-.233-.137-.44-.433-.622-.888l-1.52-3.788-1.688.678-.689.277.408 1.017.758-.102 1.037 2.584c.358.89.808 1.471 1.352 1.743.543.272 1.144.276 1.804.011.377-.152.681-.366.913-.642a2.26 2.26 0 0 0 .471-.975l.428.748 2.237-.898-.406-1.012-.826.131zM185.116 123.702a1.553 1.553 0 0 1-.683.256 1.123 1.123 0 0 1-.62-.123l-1.582-2.493a1.215 1.215 0 0 1 .129-.65 1.38 1.38 0 0 1 .502-.518c.368-.234.747-.24 1.138-.022.39.22.756.598 1.095 1.135l.071.11c.316.498.479.948.491 1.35.011.4-.169.72-.541.955m1.147.924c.699-.443 1.08-1.044 1.144-1.803.063-.759-.171-1.559-.705-2.4l-.07-.112c-.57-.897-1.224-1.498-1.963-1.8-.739-.304-1.46-.233-2.165.215a1.93 1.93 0 0 0-.694.721c-.15.282-.232.6-.244.951l-.495-.615-2.229 1.415.587.926.92-.363 3.626 5.712-.641.628.588.926 3.013-1.913-.588-.926-.841.314-1.045-1.647c.301.11.601.146.903.11.302-.037.602-.15.899-.339M191.185 118.85a1.11 1.11 0 0 1-.633-.011l-2.002-2.17a1.203 1.203 0 0 1 .012-.663c.065-.214.2-.413.4-.598.322-.296.693-.371 1.117-.225.422.146.85.453 1.281.92l.09.097c.398.433.64.846.722 1.239.082.392-.038.738-.36 1.037a1.56 1.56 0 0 1-.627.374zm1.51 2.312l-1.323-1.434c.315.054.618.036.91-.054.29-.09.563-.254.823-.493.607-.56.875-1.22.803-1.978-.073-.758-.447-1.504-1.122-2.237l-.089-.095c-.72-.783-1.472-1.256-2.253-1.423-.78-.166-1.479.033-2.092.599-.27.25-.456.529-.554.833a2.161 2.161 0 0 0-.07.98l-.597-.518-1.94 1.79.742.807.841-.522 4.588 4.974-.519.732.743.806 2.624-2.42-.744-.805-.77.458zM197.061 112.675c-.293.383-.652.547-1.078.492-.427-.055-.884-.268-1.372-.641l-.105-.08c-.474-.364-.796-.747-.965-1.148-.168-.4-.109-.79.178-1.165.288-.376.65-.537 1.083-.481.434.054.89.263 1.363.627l.104.08c.485.37.81.756.974 1.157.164.4.104.787-.182 1.159m.311-3.756l-.105-.08c-.8-.613-1.627-.891-2.477-.833-.849.059-1.578.483-2.183 1.274-.604.789-.82 1.6-.654 2.438.168.837.65 1.56 1.448 2.172l.104.08c.805.615 1.631.894 2.48.835.847-.06 1.576-.486 2.184-1.281.601-.786.82-1.595.656-2.43-.164-.834-.649-1.56-1.453-2.175M201.083 106.448l-2.864-1.593a1.008 1.008 0 0 1-.193-.563c-.006-.202.056-.42.185-.653l.38-.644-1.355-.974a2.061 2.061 0 0 0-.34.459 1.357 1.357 0 0 0-.166.9c.049.312.189.622.416.93l-.9-.408-1.292 2.324.959.534.632-.753 3.654 2.031-.261.853.954.53 1.73-3.115-.952-.53-.587.672zM203.88 100.204a3.082 3.082 0 0 1-.108.31.574.574 0 0 1-.32.34c-.144.06-.338.038-.581-.06l-3.181-1.288.444-1.097-1.184-.479-.444 1.096-1.53-.619-.681 1.68 1.53.62-.371.918 1.184.48.37-.919 3.188 1.29c.694.282 1.263.33 1.71.145.447-.184.787-.566 1.023-1.148a4.062 4.062 0 0 0 .297-1.23l-1.277-.35a3.458 3.458 0 0 1-.07.311M117.32 84.194a2.16 2.16 0 1 0-4.319 0 2.16 2.16 0 0 0 4.318 0M203.83 82.034a2.16 2.16 0 1 0-.001 4.318 2.16 2.16 0 0 0 .002-4.318"/>
    </g>
</svg>
