<svg xmlns="http://www.w3.org/2000/svg" xmlns:xlink="http://www.w3.org/1999/xlink" width="24" height="24" viewBox="0 0 24 24">
    <defs>
        <path id="a" d="M.417.044h1.395v5.67H.417z"/>
    </defs>
    <g fill="none" fill-rule="evenodd">
        <path d="M0 0h24v24H0z"/>
        <path stroke="#000" stroke-linecap="round" stroke-linejoin="round" stroke-width="1.4" d="M7.593 12.863c0-2.54 2.005-4.597 4.478-4.597s4.478 2.057 4.478 4.597M4.696 12.863h14.75"/>
        <path fill="#000" d="M12.544 2.453l.222 3.281a.71.71 0 0 1-.646.764.704.704 0 0 1-.745-.764l.224-3.281A.478.478 0 0 1 12.104 2a.481.481 0 0 1 .44.452M5.385 5.154L7.742 7.28c.289.26.318.713.063 1.01a.684.684 0 0 1-1.047 0l-2.07-2.42a.518.518 0 0 1 .045-.716.485.485 0 0 1 .652 0M16.4 7.28l2.39-2.093a.44.44 0 0 1 .632.052.47.47 0 0 1 0 .598L17.384 8.29a.685.685 0 0 1-.984.08.73.73 0 0 1 0-1.09"/>
        <g transform="translate(10.957 16.175)">
            <mask id="b" fill="#fff">
                <use xlink:href="#a"/>
            </mask>
            <path fill="#000" d="M1.81.808l-.298 4.525a.401.401 0 0 1-.424.38.402.402 0 0 1-.37-.38L.418.808a.71.71 0 0 1 .65-.763.703.703 0 0 1 .742.763" mask="url(#b)"/>
        </g>
        <path fill="#000" d="M13.59 18.135l-2.03-2.162a.736.736 0 0 1 .018-1.02.69.69 0 0 1 1.107.179l1.382 2.645a.311.311 0 0 1-.122.415.293.293 0 0 1-.356-.057"/>
        <path fill="#000" d="M10.076 17.777l1.381-2.645a.694.694 0 0 1 .952-.295.732.732 0 0 1 .173 1.136l-2.028 2.162a.294.294 0 0 1-.423.008.312.312 0 0 1-.055-.366"/>
    </g>
</svg>
