<svg xmlns="http://www.w3.org/2000/svg" width="26" height="27" viewBox="0 0 26 27">
    <path fill="#B5B5B5" fill-rule="nonzero" d="M13.594 21.849l.002.059-.002.058-.269 3.852a.572.572 0 0 1-1.125.091l-.014-.091-.27-3.852a.84.84 0 1 1 1.678-.117zm-6.059-2.961a.84.84 0 0 1 .077 1.186l-.037.04-.04.037-2.84 2.495a.596.596 0 0 1-.899-.762l.058-.078 2.495-2.841a.84.84 0 0 1 1.186-.077zm11.533-.017l.049.045.044.049 2.457 2.88a.54.54 0 0 1-.684.818l-.079-.056-2.88-2.456a.841.841 0 0 1 1.093-1.28zM12.756 7.356a6.245 6.245 0 0 1 6.237 6.239 6.245 6.245 0 0 1-6.237 6.237 6.245 6.245 0 0 1-6.238-6.237 6.245 6.245 0 0 1 6.238-6.239zm0 1.678a4.565 4.565 0 0 0-4.56 4.56 4.565 4.565 0 0 0 4.56 4.56 4.565 4.565 0 0 0 4.56-4.56 4.565 4.565 0 0 0-4.56-4.56zm-8.373 3.722a.841.841 0 1 1 0 1.677l-3.851-.268a.572.572 0 0 1 0-1.141zm16.743 0l3.853.268a.572.572 0 0 1 .092 1.126l-.092.013-3.853.27a.84.84 0 1 1-.115-1.677l.058-.002zm.492-8.114a.54.54 0 0 1 .056.623l-.056.079-2.457 2.88a.84.84 0 1 1-1.28-1.092l.046-.05.048-.044 2.88-2.458a.542.542 0 0 1 .763.062zM4.617 4.484l.078.058 2.84 2.496A.84.84 0 1 1 6.426 8.3l-.04-.038-.037-.04-2.495-2.84a.597.597 0 0 1 .763-.899zM12.796.84c.255.018.46.202.515.439l.014.09.27 3.854a.842.842 0 0 1-1.678.117l-.002-.059.002-.058.269-3.853a.572.572 0 0 1 .61-.53z"/>
</svg>
