<svg xmlns="http://www.w3.org/2000/svg" width="20" height="20" viewBox="0 0 20 20">
    <g fill="none" fill-rule="evenodd">
        <path d="M-2-2h24v24H-2z"/>
        <path fill="#B5B5B5" fill-rule="nonzero" d="M10.087 11.691c3.11 0 5.69 2.292 6.226 5.308l2.82.001c.479 0 .867.448.867 1 0 .513-.335.936-.766.993l-.1.007H15.75a.858.858 0 0 1-.38 0H4.803a.858.858 0 0 1-.38 0H.867C.388 19 0 18.552 0 18c0-.513.335-.936.766-.993l.1-.007H3.86c.537-3.017 3.117-5.309 6.227-5.309zm0 1.711c-2.157 0-3.974 1.528-4.479 3.597h8.957c-.505-2.07-2.322-3.597-4.478-3.597zm8.985-4.555a.575.575 0 0 1 0 .731l-2.491 2.998a.837.837 0 0 1-1.203.098.892.892 0 0 1 0-1.332l2.92-2.558a.539.539 0 0 1 .774.063zM1.915 8.744l2.88 2.598a.89.89 0 0 1 .078 1.234.836.836 0 0 1-1.28 0L1.063 9.62a.633.633 0 0 1 .055-.875.593.593 0 0 1 .797 0zM10.096.919l.103.006a.87.87 0 0 1 .706.587l1.622 3.104a.38.38 0 0 1-.15.507.358.358 0 0 1-.435-.07L10.915 3.96l-.343 5.217a.49.49 0 0 1-.518.464.492.492 0 0 1-.452-.464L9.256 3.96 8.232 5.054a.36.36 0 0 1-.516.01.381.381 0 0 1-.068-.448L9.27 1.507a.881.881 0 0 1 .214-.342.845.845 0 0 1 .612-.246z"/>
    </g>
</svg>
