<svg xmlns="http://www.w3.org/2000/svg" width="20" height="26" viewBox="0 0 20 26">
    <g fill="none" fill-rule="evenodd">
        <path d="M-2-6h24v24H-2z"/>
        <path fill="#B5B5B5" fill-rule="nonzero" d="M10.054 16.92c.268-.02.5.19.518.464l.343 5.216 1.027-1.093a.358.358 0 0 1 .436-.07.38.38 0 0 1 .149.507l-1.622 3.105a.87.87 0 0 1-.706.587l-.103.006a.845.845 0 0 1-.612-.246.881.881 0 0 1-.214-.343l-1.622-3.109a.381.381 0 0 1 .068-.447.36.36 0 0 1 .516.01L9.256 22.6l.346-5.215a.492.492 0 0 1 .452-.464zm.033-9.229c3.11 0 5.69 2.292 6.226 5.308l2.82.001c.479 0 .867.448.867 1 0 .513-.335.936-.766.993l-.1.007H15.75a.858.858 0 0 1-.38 0H4.803a.858.858 0 0 1-.38 0H.867C.388 15 0 14.552 0 14c0-.513.335-.936.766-.993l.1-.007H3.86c.537-3.017 3.117-5.309 6.227-5.309zm0 1.711C7.93 9.402 6.113 10.93 5.608 13h8.957c-.505-2.07-2.322-3.597-4.478-3.597zm8.985-4.555a.575.575 0 0 1 0 .731L16.58 8.576a.837.837 0 0 1-1.203.098.892.892 0 0 1 0-1.332l2.92-2.558a.539.539 0 0 1 .774.063zM1.915 4.744l2.88 2.598a.89.89 0 0 1 .078 1.234.836.836 0 0 1-1.28 0L1.063 5.62a.633.633 0 0 1 .055-.875.593.593 0 0 1 .797 0zM10.127.89c.292.022.518.26.538.552l.272 4.01a.867.867 0 0 1-.79.934.86.86 0 0 1-.91-.933l.273-4.011a.584.584 0 0 1 .617-.552z"/>
    </g>
</svg>
